<svg id="Layer_1" data-name="Layer 1" xmlns="http://www.w3.org/2000/svg" viewBox="0 0 28.24 29.22"><title>location-icon</title><g id="Group_483" data-name="Group 483"><path id="Path_144" data-name="Path 144" d="M18.94,21.58a.49.49,0,1,0-.09,1h0c6.14.58,8.42,2,8.42,2.74,0,1.23-5,3-13.15,3S1,26.52,1,25.29c0-.75,2.29-2.16,8.42-2.74a.49.49,0,0,0-.09-1C7.12,21.79,0,22.66,0,25.29s7.1,3.93,14.12,3.93,14.12-1.35,14.12-3.93-7.12-3.5-9.3-3.71" transform="translate(0 0)"/><path id="Path_145" data-name="Path 145" d="M20.1,2.44a8.2,8.2,0,0,0-6-2.44A8.48,8.48,0,0,0,6.77,4.31a9.44,9.44,0,0,0-.24,8.84,53.35,53.35,0,0,0,6.11,9.65l1.12,1.4a.49.49,0,0,0,.68.08l.08-.08,1.09-1.38a55.9,55.9,0,0,0,6.14-9.68A9.5,9.5,0,0,0,20.1,2.44m.76,10.28a55,55,0,0,1-6,9.51l-.71.9-.73-.92a52.4,52.4,0,0,1-6-9.48A8.47,8.47,0,0,1,7.62,4.8,7.52,7.52,0,0,1,14.16,1a7.21,7.21,0,0,1,5.23,2.14,8.51,8.51,0,0,1,1.47,9.61" transform="translate(0 0)"/><path id="Path_146" data-name="Path 146" d="M17.8,7.2a.49.49,0,0,0-.94.27l0,.09h0a3.12,3.12,0,0,1,.15,1.83,3,3,0,0,1-2.22,2.25A3,3,0,0,1,12,10.84,3.08,3.08,0,0,1,11.22,8,3,3,0,0,1,15.29,5.9a.49.49,0,1,0,.38-.9,4,4,0,0,0-2.45-.22,3.93,3.93,0,0,0-3,3,4,4,0,0,0,1.08,3.76,3.94,3.94,0,0,0,2.79,1.15,4.05,4.05,0,0,0,.89-.1,3.93,3.93,0,0,0,3-3,4.08,4.08,0,0,0-.19-2.4" transform="translate(0 0)"/></g></svg>