<svg id="Layer_1" data-name="Layer 1" xmlns="http://www.w3.org/2000/svg" xmlns:xlink="http://www.w3.org/1999/xlink" viewBox="0 0 232.44 28.13"><defs><style>.cls-1{fill:none;}.cls-2{clip-path:url(#clip-path);}.cls-3{fill:#d90017;}</style><clipPath id="clip-path"><rect class="cls-1" width="232.44" height="28.13"/></clipPath></defs><title>logo</title><g id="Group_3" data-name="Group 3"><g class="cls-2"><g id="Group_2" data-name="Group 2"><path id="Path_1" data-name="Path 1" class="cls-3" d="M26.79,4.47l3.52.41c1.58.18,1.75,1.5,1.75,2.35V11.4H15.83V7.23c0-.85.17-2.17,1.75-2.35l3.52-.41V.9H0V4.47l3.53.41c1.58.18,1.75,1.5,1.75,2.35V20.9c0,.84-.17,2.17-1.75,2.35L0,23.66v3.57H21.1V23.66l-3.53-.41c-1.58-.18-1.75-1.5-1.75-2.35V16.73H32.07V20.9c0,.84-.17,2.17-1.75,2.35l-3.52.41v3.57H47.9V23.66l-3.53-.41c-1.58-.18-1.75-1.5-1.75-2.35V7.23c0-.85.17-2.17,1.75-2.35l3.53-.41V.9H26.79Z"/><path id="Path_2" data-name="Path 2" class="cls-3" d="M167.53.9H141.47V4.47l3.12.32a1.84,1.84,0,0,1,1.84,2.15v14c0,.84-.17,2.17-1.75,2.35l-3.53.41v3.57h26.38c9.44,0,17.2-3.8,17.2-13.16S177,.9,167.52.9M165.6,22.18h-8.84V5.95h8.84c5.21,0,7,2.47,7,8.12s-1.77,8.12-7,8.12"/><path id="Path_3" data-name="Path 3" class="cls-3" d="M229.09,23.29a3.49,3.49,0,0,1-2.71-2.07L214.23,2.65c-.87-1.34-1.5-1.75-2.8-1.75h-20V4.47L196.2,5A1.39,1.39,0,0,1,197,7.24l-9,14.6a2.49,2.49,0,0,1-1.86,1.42l-3.57.41v3.57h16.86V23.66l-2.91-.3c-1.24-.13-1.9-1-1.29-2l1.35-2.2h16.19L214,21c1,1.6-.27,2.25-1.42,2.37l-3,.3v3.57h22.81V23.66l-3.35-.37m-29.58-8.78,5-8.11,5.3,8.11Z"/><path id="Path_4" data-name="Path 4" class="cls-3" d="M122.63,4.47l3.52.41c1.58.18,1.75,1.5,1.75,2.35V20.4L114,2C113.34,1.18,112.8.9,111.3.9H93.2V4.47l3.52.41c1.58.18,1.75,1.5,1.75,2.35V20.9c0,.84-.17,2.17-1.75,2.35l-3.52.41v3.57h16.86V23.66l-3.53-.41c-1.58-.18-1.75-1.5-1.75-2.35V7.73l13.94,18.38c.63.85,1.17,1.12,2.67,1.12h12.82v-20c0-.85.17-2.17,1.75-2.35l3.52-.41V.9H122.63Z"/><path id="Path_5" data-name="Path 5" class="cls-3" d="M70.5,0C53.36,0,48.94,7.5,48.94,14.07s4.42,14.07,21.57,14.07,21.57-7.5,21.57-14.07S87.64,0,70.5,0m0,23.12c-6.64,0-9.41-2.79-9.41-9.05S63.86,5,70.5,5s9.41,2.79,9.41,9.05-2.77,9.05-9.41,9.05"/></g></g></g></svg>