<svg id="Layer_1" data-name="Layer 1" xmlns="http://www.w3.org/2000/svg" viewBox="0 0 46.08 46.08"><title>parts-icon-1</title><g id="Group_43" data-name="Group 43"><path id="Path_9" data-name="Path 9" d="M7.87,43.15A3.47,3.47,0,0,1,5,37.75l.15-.22L5,37.32A23,23,0,0,1,23,0h0a23.21,23.21,0,0,1,4.59.46.55.55,0,0,1-.16,1.09h-.05a21.94,21.94,0,0,0-21.67,35l.19.25.27-.15a3.47,3.47,0,1,1,1.67,6.52m0-5.85a2.38,2.38,0,1,0,1.68.7,2.38,2.38,0,0,0-1.68-.7" transform="translate(0 0)"/><path id="Path_10" data-name="Path 10" d="M23,46.08a23.23,23.23,0,0,1-4.54-.45.55.55,0,1,1,.18-1.08h0a21.94,21.94,0,0,0,21.63-35l-.19-.25-.27.15A3.48,3.48,0,1,1,41.1,8.33L41,8.55l.16.21A23,23,0,0,1,23,46.08h0M38.21,4a2.38,2.38,0,1,0,1.68.7A2.38,2.38,0,0,0,38.21,4" transform="translate(0 0)"/><path id="Path_11" data-name="Path 11" d="M20.18,39.31a.55.55,0,0,1-.55-.55V36.71l-.27-.07A14,14,0,0,1,16,35.25l-.24-.14-1.45,1.45a.54.54,0,0,1-.39.16.55.55,0,0,1-.39-.16l-4-4a.55.55,0,0,1,0-.78L11,30.29,10.82,30A14,14,0,0,1,9.43,26.7l-.07-.27h-2a.55.55,0,0,1-.55-.55h0V20.17a.55.55,0,0,1,.55-.55h2l.07-.27A14,14,0,0,1,10.81,16l.14-.24L9.51,14.32a.55.55,0,0,1-.16-.39.54.54,0,0,1,.16-.39l4-4a.55.55,0,0,1,.78,0l1.44,1.44.24-.14a14,14,0,0,1,3.34-1.39l.27-.07v-2a.55.55,0,0,1,.55-.55h5.72a.55.55,0,0,1,.55.55h0v2l.27.07a14,14,0,0,1,3.34,1.39l.24.14,1.44-1.44a.55.55,0,0,1,.77,0h0l4,4a.55.55,0,0,1,0,.78l-1.44,1.44.14.24a14,14,0,0,1,1.39,3.34l.07.27h2a.55.55,0,0,1,.55.55v5.71a.55.55,0,0,1-.55.55h-2l-.07.27A14,14,0,0,1,35.26,30l-.14.24,1.45,1.45a.55.55,0,0,1,0,.78l-4,4a.55.55,0,0,1-.39.16.55.55,0,0,1-.39-.16L30.3,35.11l-.24.14a14,14,0,0,1-3.34,1.39l-.27.07v2.05a.55.55,0,0,1-.55.55H20.18ZM15.7,33.86A.54.54,0,0,1,16,34a12.88,12.88,0,0,0,4.3,1.78.55.55,0,0,1,.43.54v1.94h4.62V36.27a.55.55,0,0,1,.43-.54A12.89,12.89,0,0,0,30.08,34a.55.55,0,0,1,.69.07l1.37,1.37,3.27-3.27L34,30.76a.55.55,0,0,1-.07-.69,12.88,12.88,0,0,0,1.78-4.3.55.55,0,0,1,.54-.43h1.94V20.72H36.28a.55.55,0,0,1-.54-.43A12.89,12.89,0,0,0,34,16,.55.55,0,0,1,34,15.3l1.36-1.36-3.27-3.26L30.77,12a.55.55,0,0,1-.68.07,12.88,12.88,0,0,0-4.3-1.78.55.55,0,0,1-.43-.54V7.86H20.73V9.79a.55.55,0,0,1-.43.54A12.87,12.87,0,0,0,16,12.1a.55.55,0,0,1-.69-.07L14,10.67l-3.27,3.26L12,15.3a.55.55,0,0,1,.07.68,12.88,12.88,0,0,0-1.78,4.3.55.55,0,0,1-.54.43H7.87v4.62H9.81a.55.55,0,0,1,.54.43,12.88,12.88,0,0,0,1.78,4.3.55.55,0,0,1-.07.68l-1.37,1.37,3.27,3.27L15.32,34a.55.55,0,0,1,.39-.16" transform="translate(0 0)"/><path id="Path_12" data-name="Path 12" d="M23,30.23A7.19,7.19,0,1,1,30.23,23h0A7.2,7.2,0,0,1,23,30.23m0-13.28A6.09,6.09,0,1,0,29.13,23,6.09,6.09,0,0,0,23,16.95" transform="translate(0 0)"/><path id="Path_13" data-name="Path 13" d="M31.46,2.73A.55.55,0,1,1,32,2.18a.56.56,0,0,1-.16.39.55.55,0,0,1-.39.16" transform="translate(0 0)"/><path id="Path_14" data-name="Path 14" d="M14.66,44.46a.55.55,0,1,1,.39-.16.55.55,0,0,1-.39.16" transform="translate(0 0)"/></g></svg>