<svg id="Layer_1" data-name="Layer 1" xmlns="http://www.w3.org/2000/svg" viewBox="0 0 46.07 46.08"><title>parts-icon-2</title><g id="Group_42" data-name="Group 42"><path id="Path_33" data-name="Path 33" d="M18.9,46.07A2.75,2.75,0,0,1,17,41.39l.26-.26L17,40.87a2.74,2.74,0,0,1-.73-2.59l0-.07-.56-3.52-.22-.07a15.39,15.39,0,0,1-3.09-1.28l-.2-.11L8.53,35.87a.55.55,0,0,1-.71-.06l-4-4a.55.55,0,0,1-.06-.71l2.64-3.64-.11-.2A15.38,15.38,0,0,1,5,24.13l-.07-.22L.46,23.2A.55.55,0,0,1,0,22.66V16.94a.55.55,0,0,1,.46-.54l4.44-.71L5,15.46a15.39,15.39,0,0,1,1.28-3.09l.11-.2L3.72,8.53a.55.55,0,0,1,.06-.71l4-4a.55.55,0,0,1,.71-.06l3.64,2.64.2-.11A15.37,15.37,0,0,1,15.46,5l.22-.07L16.4.47A.55.55,0,0,1,16.94,0h5.72a.55.55,0,0,1,.54.46l.71,4.44.22.07a15.37,15.37,0,0,1,3.09,1.28l.2.11,3.64-2.64a.55.55,0,0,1,.71.06l4,4a.55.55,0,0,1,.06.71l-2.64,3.64.11.2a15.38,15.38,0,0,1,1.28,3.09l.07.22,4.44.71a.55.55,0,0,1,.46.54v5.72a.55.55,0,0,1-.46.54l-4.44.71-.07.22a15.45,15.45,0,0,1-.95,2.45l-.08.16.08.16a4.17,4.17,0,0,0,1.2,1.48l1.58,1.22.23-.2a.55.55,0,0,1,.37-.14h8.48a.55.55,0,0,1,.55.55h0V44.26a.55.55,0,0,1-.55.55H37.05a.55.55,0,0,1-.53-.4l-.14-.52L34.88,45a5.28,5.28,0,0,1-3.16,1.06Zm0-4.4a1.65,1.65,0,0,0,0,3.3H31.72a4.17,4.17,0,0,0,2.5-.84l2.28-1.72V31l-2.3-1.77A5.26,5.26,0,0,1,32.51,27h0v0l0,0a5.25,5.25,0,0,1-.28-1.2v0c0-.08,0-.16,0-.25v-.06c0-.11,0-.2,0-.28V19.55a1.31,1.31,0,0,0-1.31-1.31h-.36l-.15,0h0a2.93,2.93,0,0,0-1.35.64l0,0-.09.08,0,0-.07.07h0l0,0,0,.05h0l-.09.11h0l0,0a2.9,2.9,0,0,0-.58,1.74v6.76a.55.55,0,0,1-.55.55H18.9a1.65,1.65,0,0,0-.32,0l-.06,0h0l-.07,0-.05,0h0l-.09,0,0,0-.1,0,0,0-.11.07h0a1.65,1.65,0,0,0-.44.44v0l-.07.11,0,0,0,.1,0,0,0,.09,0,.06,0,.09v.06l0,.1V30c0,.06,0,.11,0,.16a1.65,1.65,0,0,0,1.65,1.65H21a.55.55,0,1,1,0,1.1h-2.1a1.65,1.65,0,0,0,0,3.3H21a.55.55,0,1,1,0,1.1H18.7l-.11,0h0l-.12,0h0a1.66,1.66,0,0,0-.83.6l0,0,0,.05-.06.1h0l-.06.12v0a1.65,1.65,0,0,0,1.51,2.29H21a.55.55,0,0,1,0,1.1Zm22.39-6a.55.55,0,0,1,.55.55v7.49H45V30.34H37.6V43.71h3.14V36.23a.55.55,0,0,1,.55-.55M4.89,8.27l2.57,3.55a.55.55,0,0,1,0,.6A14.26,14.26,0,0,0,5.88,16.3a.55.55,0,0,1-.45.41L1.1,17.4v4.78l4.33.69a.55.55,0,0,1,.45.41,14.26,14.26,0,0,0,1.61,3.88.55.55,0,0,1,0,.6L4.89,31.32,8.27,34.7l3.55-2.57a.55.55,0,0,1,.6,0A14.25,14.25,0,0,0,16,33.62l.3.08.13-.29,0,0,0-.05,0-.06,0-.05,0-.05,0-.06,0-.06,0,0,0,0,0-.06,0,0,0-.06.05-.06,0,0,.09-.09.26-.26L17,32.07a2.73,2.73,0,0,1-.8-1.94,1.87,1.87,0,0,1,0-.2v0c0-.07,0-.13,0-.19v0c0-.06,0-.11,0-.17v0l0-.18v0l.05-.15,0,0,.07-.16,0-.05.06-.11,0-.08.07-.1,0,0,.25-.37L16.5,28A8.83,8.83,0,1,1,28.31,17.47l.13.46.41-.24a4,4,0,0,1,1.47-.5h.09l.43,0-.12-.41A11.34,11.34,0,1,0,9.82,25.19a.55.55,0,1,1-.94.56l0,0A12.43,12.43,0,1,1,32,17.29l0,.15.13.08a2.4,2.4,0,0,1,1.12,2v4l.61-.58a.55.55,0,0,1,.29-.14l4.33-.69V17.4l-4.33-.69a.55.55,0,0,1-.45-.41,14.26,14.26,0,0,0-1.61-3.88.55.55,0,0,1,0-.6l2.57-3.56L31.33,4.88,27.78,7.46a.55.55,0,0,1-.6,0,14.26,14.26,0,0,0-3.88-1.61.55.55,0,0,1-.41-.45L22.19,1.1H17.41l-.7,4.33a.55.55,0,0,1-.41.45,14.26,14.26,0,0,0-3.88,1.61.55.55,0,0,1-.6,0L8.27,4.88ZM19.8,12.07A7.72,7.72,0,0,0,18.45,27.4h.11l.35,0h2.4a7.71,7.71,0,0,0,5.49-4.31l0-.07V21.17a4,4,0,0,1,.58-2.09l.07-.11,0-.13a7.76,7.76,0,0,0-2.2-4.52,7.68,7.68,0,0,0-5.47-2.26m6.4,13.8L26,26a8.9,8.9,0,0,1-.78.69l-.83.65h2.4V25.21Z" transform="translate(0 0)"/><path id="Path_34" data-name="Path 34" d="M41.29,33.52a.56.56,0,0,1-.21,0l-.1-.05-.08-.07-.07-.08,0-.09a.56.56,0,0,1,0-.1.57.57,0,0,1,0-.21.6.6,0,0,1,0-.1l.05-.09.07-.08.09-.07.09,0,.1,0a.54.54,0,0,1,.21,0l.1,0a.54.54,0,0,1,.18.12l.07.08.05.1a.6.6,0,0,1,0,.1.54.54,0,0,1,0,.1.52.52,0,0,1,0,.11.54.54,0,0,1,0,.1l-.05.1-.07.08-.08.07-.1.05-.1,0h-.1" transform="translate(0 0)"/><path id="Path_35" data-name="Path 35" d="M11.3,28.65a.55.55,0,0,1-.39-.16.55.55,0,0,1,0-.78.53.53,0,0,1,.38-.16h0a.55.55,0,0,1,.39.94.55.55,0,0,1-.38.16" transform="translate(0 0)"/><path id="Path_36" data-name="Path 36" d="M19.8,25.26a5.47,5.47,0,1,1,5.47-5.47,5.47,5.47,0,0,1-5.47,5.47m0-9.84a4.37,4.37,0,1,0,4.37,4.37h0a4.38,4.38,0,0,0-4.37-4.37" transform="translate(0 0)"/><path id="Path_37" data-name="Path 37" d="M21,21.52a.54.54,0,0,1-.39-.16l-.79-.79-.79.79a.55.55,0,0,1-.8-.75l0,0L19,19.8,18.23,19a.55.55,0,0,1,.78-.78l.79.79.79-.79a.55.55,0,0,1,.78.78h0l-.79.79.79.79a.55.55,0,0,1-.39.94" transform="translate(0 0)"/></g></svg>