<svg id="Layer_1" data-name="Layer 1" xmlns="http://www.w3.org/2000/svg" viewBox="0 0 46.1 46.08"><title>parts-icon-5</title><g id="Group_45" data-name="Group 45"><path id="Path_38" data-name="Path 38" d="M31.34,15.28a.55.55,0,1,1,.55-.55.55.55,0,0,1-.55.55h0" transform="translate(0.02 0)"/><path id="Path_39" data-name="Path 39" d="M14.73,31.89a.55.55,0,1,1,.55-.55.55.55,0,0,1-.55.55h0" transform="translate(0.02 0)"/><path id="Path_40" data-name="Path 40" d="M41,46.07a5.09,5.09,0,0,1-3.62-1.5l0,0L25.48,31.7l-.78.78a.55.55,0,0,1-.8-.75l0,0,.82-.81L23,29,17.2,34.82l.06.2A8.78,8.78,0,0,1,6,45.62a.55.55,0,0,1-.21-.91l3.93-3.9V38.68l-2.3-2.3H5.26l-3.9,3.93a.55.55,0,0,1-.91-.21A8.76,8.76,0,0,1,11,28.81l.2.05,7.12-7.12L6.78,10.15H4.43A.55.55,0,0,1,4,9.88L.08,3.42a.55.55,0,0,1,.08-.67L2.75.16A.55.55,0,0,1,3.42.08L9.88,4a.55.55,0,0,1,.27.47V6.78L21.73,18.4l7.14-7.14-.06-.2A8.78,8.78,0,0,1,40.1.46a.55.55,0,0,1,.22.9l-3.84,3.9V7.4l2.21,2.29h2.13l3.9-3.93a.55.55,0,0,1,.91.21A8.78,8.78,0,0,1,35,17.26l-.2-.05L29,23l1.88,1.73.81-.81a.55.55,0,1,1,.8.75l0,0-.78.78L44.56,37.32l0,0A5.12,5.12,0,0,1,41,46.08M26.26,30.93,38.12,43.81h0a4,4,0,1,0,5.69-5.69h0L30.9,26.28ZM7.62,35.29a.54.54,0,0,1,.39.16l2.62,2.62a.54.54,0,0,1,.16.39V41a.55.55,0,0,1-.16.39L7.18,44.85l.76.08a7.89,7.89,0,0,0,.84,0,7.69,7.69,0,0,0,7.28-10.13.55.55,0,0,1,.13-.56l18.1-18.09a.55.55,0,0,1,.56-.13A7.69,7.69,0,0,0,45,8.78a7.8,7.8,0,0,0,0-.84l-.08-.76-3.42,3.45a.55.55,0,0,1-.39.16H38.45a.55.55,0,0,1-.4-.17L35.53,8a.55.55,0,0,1-.15-.38V5a.54.54,0,0,1,.16-.39l3.37-3.42-.75-.08a7.86,7.86,0,0,0-.86,0A7.69,7.69,0,0,0,30,11.23a.54.54,0,0,1-.13.56L11.79,29.89a.55.55,0,0,1-.56.13,7.72,7.72,0,0,0-2.47-.41,7.62,7.62,0,0,0-4.47,1.46,7.59,7.59,0,0,0-3.2,6.23,7.78,7.78,0,0,0,0,.84l.08.76,3.42-3.45A.55.55,0,0,1,5,35.29Zm16.16-7,1.73,1.88,4.58-4.58-1.88-1.73ZM1.24,3.22l3.5,5.84H7a.54.54,0,0,1,.39.15L19.15,21,21,19.17,9.21,7.4A.55.55,0,0,1,9,7V4.74L3.22,1.24Z" transform="translate(0.02 0)"/><path id="Path_41" data-name="Path 41" d="M17.32,29.31a.55.55,0,0,1-.39-.94L28.37,16.93a.55.55,0,0,1,.8.75l0,0L17.7,29.15a.55.55,0,0,1-.39.16" transform="translate(0.02 0)"/><path id="Path_42" data-name="Path 42" d="M40.31,40.86a.54.54,0,0,1-.39-.16l-8.24-8.21a.55.55,0,0,1,.77-.78l8.24,8.21a.55.55,0,0,1-.39.94Z" transform="translate(0.02 0)"/></g></svg>