<svg id="Layer_1" data-name="Layer 1" xmlns="http://www.w3.org/2000/svg" viewBox="0 0 34.92 46.25"><title>parts-icon-6</title><g id="Group_41" data-name="Group 41"><path id="Path_23" data-name="Path 23" d="M7.49,25.55a.37.37,0,0,1-.29-.14A13,13,0,0,1,23.28,5.88a.37.37,0,0,1-.17.7h0a.37.37,0,0,1-.17,0A12.22,12.22,0,0,0,7.78,24.94a.37.37,0,0,1-.06.52.37.37,0,0,1-.23.08" transform="translate(-0.01 -0.01)"/><path id="Path_24" data-name="Path 24" d="M7.49,25.64a.46.46,0,0,1-.37-.18A13.05,13.05,0,0,1,23.32,5.8a.46.46,0,0,1-.42.83,12.13,12.13,0,0,0-15,18.26.46.46,0,0,1-.36.75M17.44,4.58A12.88,12.88,0,0,0,7.27,25.35.28.28,0,0,0,7.71,25,12.31,12.31,0,0,1,23,6.47a.28.28,0,1,0,.25-.5h0a12.94,12.94,0,0,0-5.8-1.39" transform="translate(-0.01 -0.01)"/><path id="Path_25" data-name="Path 25" d="M17.42,30.41a12.81,12.81,0,0,1-7.94-2.72.37.37,0,1,1,.45-.59h0a12.07,12.07,0,0,0,7.48,2.56h0A12.22,12.22,0,0,0,28.34,11.95a.37.37,0,0,1,.66-.34h0a13,13,0,0,1-11.58,18.8" transform="translate(-0.01 -0.01)"/><path id="Path_26" data-name="Path 26" d="M17.42,30.5a12.9,12.9,0,0,1-8-2.74A.46.46,0,1,1,10,27,12.13,12.13,0,0,0,28.26,12a.46.46,0,1,1,.83-.42h0A13.05,13.05,0,0,1,17.42,30.5M9.72,27.12a.28.28,0,0,0-.17.5,12.87,12.87,0,0,0,19.38-16,.28.28,0,1,0-.52.21l0,0a12.31,12.31,0,0,1-11,17.85,12.16,12.16,0,0,1-7.54-2.58.28.28,0,0,0-.17-.06" transform="translate(-0.01 -0.01)"/><path id="Path_27" data-name="Path 27" d="M26.88,9.5a.37.37,0,0,1-.28-.13c-.17-.19-.34-.37-.52-.56s-.37-.36-.56-.52A.37.37,0,0,1,26,7.74c.2.18.4.36.59.55s.38.39.56.59a.37.37,0,0,1-.28.62" transform="translate(-0.01 -0.01)"/><path id="Path_28" data-name="Path 28" d="M26.88,9.59a.46.46,0,0,1-.35-.16c-.17-.19-.34-.37-.52-.55s-.37-.35-.55-.52a.46.46,0,0,1,0-.65h0a.46.46,0,0,1,.65,0h0l.59.56c.19.19.38.39.56.59a.46.46,0,0,1-.35.77M25.76,7.74a.28.28,0,0,0-.28.28V8a.28.28,0,0,0,.09.19c.19.17.38.35.56.53s.36.37.53.56a.29.29,0,0,0,.4,0,.28.28,0,0,0,0-.39h0c-.18-.2-.36-.4-.55-.59S26.15,8,26,7.8a.28.28,0,0,0-.19-.07" transform="translate(-0.01 -0.01)"/><path id="Path_29" data-name="Path 29" d="M25.37,46.17h0a.37.37,0,0,1-.31-.22l-5.4-12-1,.63a2.14,2.14,0,0,1-2.23,0l-1-.62-5.39,12a.37.37,0,0,1-.3.22h0A.37.37,0,0,1,9.3,46L6.8,42.43l-4.33.52h0a.37.37,0,0,1-.34-.52l5.3-11.81L6.2,30.32a2.14,2.14,0,0,1-1.58-1.58l-.44-1.81a1.4,1.4,0,0,0-.54-.8L2.14,25A2.14,2.14,0,0,1,1.29,23l.29-1.84a1.4,1.4,0,0,0-.19-.95l-1-1.59a2.14,2.14,0,0,1,0-2.23l1-1.59a1.4,1.4,0,0,0,.19-.95L1.29,12a2.14,2.14,0,0,1,.86-2.07l1.5-1.09A1.4,1.4,0,0,0,4.18,8L4.62,6.2A2.14,2.14,0,0,1,6.2,4.62L8,4.18a1.4,1.4,0,0,0,.8-.54l1.09-1.5a2.15,2.15,0,0,1,1.73-.89l.34,0,1.84.29a1.41,1.41,0,0,0,.95-.19l1.59-1a2.14,2.14,0,0,1,2.23,0l1.59,1a1.4,1.4,0,0,0,.95.19L23,1.29l.34,0A2.15,2.15,0,0,1,25,2.14l1.09,1.5a1.4,1.4,0,0,0,.8.54l1.81.44A2.14,2.14,0,0,1,30.32,6.2L30.76,8a1.4,1.4,0,0,0,.54.8l1.5,1.09A2.14,2.14,0,0,1,33.66,12l-.29,1.84a1.4,1.4,0,0,0,.19.95l1,1.59a2.14,2.14,0,0,1,0,2.23l-1,1.59a1.4,1.4,0,0,0-.19.95L33.66,23A2.14,2.14,0,0,1,32.8,25l-1.5,1.09a1.4,1.4,0,0,0-.54.8l-.44,1.81a2.14,2.14,0,0,1-1.58,1.58l-1.16.28,5.3,11.82a.37.37,0,0,1-.34.52h0l-4.33-.52L25.67,46a.37.37,0,0,1-.3.16M7,41.66a.37.37,0,0,1,.3.16L9.53,45l5.19-11.59-.47-.08-.23,0-.21,0L12,33.66l-.33,0-.3,0-.27,0-2.56,5.7a.37.37,0,0,1-.34.22.37.37,0,0,1-.15,0A.37.37,0,0,1,7.83,39l2.56-5.71-.2-.18a2.19,2.19,0,0,1-.3-.33L8.8,31.3a1.39,1.39,0,0,0-.3-.3l-.36-.27L3,42.14l3.9-.47H7m13.94-8.3h-.19l-.48.07,5.2,11.6,2.25-3.22a.37.37,0,0,1,.3-.16h0l3.9.47-5.11-11.4-.36.25a1.4,1.4,0,0,0-.34.33L25,32.81a2.18,2.18,0,0,1-.28.31l-.19.18L27.11,39a.37.37,0,1,1-.68.3l-2.56-5.71-.27,0-.32,0-.33,0-1.84-.29-.21,0M14,32.62a2.15,2.15,0,0,1,1.12.31l1.59,1a1.4,1.4,0,0,0,1.46,0l1.59-1a2.15,2.15,0,0,1,1.45-.29l1.84.29a1.4,1.4,0,0,0,1.35-.56l1.09-1.5a2.15,2.15,0,0,1,1.23-.82l1.81-.44a1.4,1.4,0,0,0,1-1L30,26.77a2.15,2.15,0,0,1,.82-1.23l1.5-1.09a1.4,1.4,0,0,0,.56-1.35l-.29-1.84a2.15,2.15,0,0,1,.29-1.45l1-1.59a1.4,1.4,0,0,0,0-1.46l-1-1.59a2.15,2.15,0,0,1-.29-1.45l.29-1.84a1.4,1.4,0,0,0-.56-1.35l-1.5-1.09A2.15,2.15,0,0,1,30,8.19l-.44-1.81a1.4,1.4,0,0,0-1-1l-1.81-.44a2.15,2.15,0,0,1-1.23-.82l-1.09-1.5A1.4,1.4,0,0,0,23.06,2l-1.84.29A2.15,2.15,0,0,1,19.77,2l-1.59-1a1.4,1.4,0,0,0-1.46,0L15.13,2a2.15,2.15,0,0,1-1.45.29L11.84,2l-.22,0a1.41,1.41,0,0,0-1.13.58L9.39,4.09a2.15,2.15,0,0,1-1.23.82l-1.81.44a1.4,1.4,0,0,0-1,1L4.88,8.19a2.15,2.15,0,0,1-.82,1.23l-1.5,1.09A1.4,1.4,0,0,0,2,11.87l.29,1.84A2.15,2.15,0,0,1,2,15.16L1,16.75a1.4,1.4,0,0,0,0,1.46L2,19.8a2.15,2.15,0,0,1,.29,1.45L2,23.09a1.4,1.4,0,0,0,.56,1.35l1.5,1.09a2.15,2.15,0,0,1,.82,1.23l.44,1.81a1.4,1.4,0,0,0,1,1l1.81.44a2.15,2.15,0,0,1,1.23.82l1.09,1.5a1.41,1.41,0,0,0,1.13.58l.22,0,1.84-.29.33,0" transform="translate(-0.01 -0.01)"/><path id="Path_30" data-name="Path 30" d="M25.37,46.26h0a.47.47,0,0,1-.38-.27L19.59,34l-1,.58a2.23,2.23,0,0,1-2.33,0L15.38,34,10,46a.46.46,0,0,1-.38.27.47.47,0,0,1-.42-.2L6.76,42.52,2.48,43A.46.46,0,0,1,2,42.39L7.25,30.67l-1.08-.26a2.23,2.23,0,0,1-1.65-1.65L4.09,27a1.31,1.31,0,0,0-.5-.75l-1.5-1.09A2.23,2.23,0,0,1,1.19,23l.29-1.84a1.31,1.31,0,0,0-.18-.89l-1-1.59a2.23,2.23,0,0,1,0-2.33l1-1.59a1.31,1.31,0,0,0,.18-.89L1.19,12a2.23,2.23,0,0,1,.9-2.16l1.5-1.09A1.31,1.31,0,0,0,4.09,8l.44-1.81A2.23,2.23,0,0,1,6.18,4.52L8,4.09a1.31,1.31,0,0,0,.75-.5l1.09-1.5a2.24,2.24,0,0,1,1.81-.92l.35,0,1.84.29a1.32,1.32,0,0,0,.89-.18l1.59-1a2.23,2.23,0,0,1,2.33,0l1.59,1a1.32,1.32,0,0,0,.89.18L23,1.19l.35,0a2.24,2.24,0,0,1,1.8.92l1.09,1.5a1.31,1.31,0,0,0,.75.5l1.81.44a2.23,2.23,0,0,1,1.65,1.65L30.85,8a1.31,1.31,0,0,0,.5.75l1.5,1.09a2.23,2.23,0,0,1,.9,2.16l-.29,1.84a1.31,1.31,0,0,0,.18.89l1,1.59a2.23,2.23,0,0,1,0,2.33l-1,1.59a1.31,1.31,0,0,0-.18.89L33.74,23a2.23,2.23,0,0,1-.9,2.16l-1.5,1.09a1.31,1.31,0,0,0-.5.75l-.44,1.81a2.23,2.23,0,0,1-1.65,1.65l-1,.25L33,42.39a.46.46,0,0,1-.48.65l-4.28-.51-2.46,3.53a.46.46,0,0,1-.38.2m-5.7-12.49,5.44,12.14a.28.28,0,0,0,.49,0l2.53-3.62,4.39.53a.29.29,0,0,0,.26-.11.28.28,0,0,0,0-.28L27.46,30.54l1.26-.3a2,2,0,0,0,1.51-1.51l.44-1.81a1.49,1.49,0,0,1,.57-.86L32.74,25a2,2,0,0,0,.82-2l-.29-1.84a1.5,1.5,0,0,1,.2-1l1-1.59a2,2,0,0,0,0-2.14l-1-1.59a1.5,1.5,0,0,1-.2-1L33.56,12a2,2,0,0,0-.82-2l-1.5-1.09A1.5,1.5,0,0,1,30.67,8l-.44-1.81A2,2,0,0,0,28.72,4.7l-1.81-.44a1.5,1.5,0,0,1-.86-.57L25,2.19a2.06,2.06,0,0,0-1.66-.85l-.32,0-1.84.29a1.5,1.5,0,0,1-1-.2l-1.59-1a2,2,0,0,0-2.14,0l-1.59,1a1.51,1.51,0,0,1-1,.2L12,1.37a2.07,2.07,0,0,0-2,.82L8.88,3.69A1.5,1.5,0,0,1,8,4.26L6.21,4.7A2,2,0,0,0,4.7,6.22L4.26,8a1.49,1.49,0,0,1-.57.86L2.19,10a2,2,0,0,0-.82,2l.29,1.84a1.49,1.49,0,0,1-.2,1l-1,1.59a2,2,0,0,0,0,2.14l1,1.59a1.5,1.5,0,0,1,.2,1L1.37,23a2,2,0,0,0,.82,2l1.5,1.09a1.5,1.5,0,0,1,.57.86l.44,1.81a2,2,0,0,0,1.51,1.51l1.29.31L2.16,42.46a.28.28,0,0,0,.29.39l4.39-.53L9.37,46a.29.29,0,0,0,.26.12.28.28,0,0,0,.23-.16l5.44-12.13,1.1.67a2,2,0,0,0,2.14,0ZM9.55,45.23,7.21,41.87a.28.28,0,0,0-.26-.12l-4.06.49L8.1,30.59l.46.34a1.47,1.47,0,0,1,.32.32L10,32.75a2.09,2.09,0,0,0,.29.32l.25.22,0,.06L7.92,39.06a.28.28,0,0,0,.14.37.28.28,0,0,0,.37-.14L11,33.53l.34,0a2.08,2.08,0,0,0,.6,0l1.84-.29a1.49,1.49,0,0,1,.47,0l.58.1,0,.11ZM7,41.57a.46.46,0,0,1,.38.2l2.16,3.09,5.08-11.33-.35-.06a1.32,1.32,0,0,0-.42,0L12,33.76a2.25,2.25,0,0,1-.66,0l-.2,0L8.6,39.38a.46.46,0,0,1-.42.27.46.46,0,0,1-.19,0A.46.46,0,0,1,7.75,39l2.53-5.65-.15-.13a2.29,2.29,0,0,1-.31-.35l-1.09-1.5a1.3,1.3,0,0,0-.28-.28l-.27-.2L3.18,42l3.74-.45H7m18.44,3.66L20.1,33.38l.61-.08a1.51,1.51,0,0,1,.43,0l1.84.29a2.08,2.08,0,0,0,.63,0l.34-.05,2.59,5.77a.28.28,0,0,0,.37.14.28.28,0,0,0,.14-.37h0l-2.6-5.79.24-.22a2.09,2.09,0,0,0,.27-.3L26,31.26a1.49,1.49,0,0,1,.36-.35l.45-.31,5.22,11.65L28,41.77a.28.28,0,0,0-.26.12ZM20.37,33.52l5.09,11.35,2.16-3.09a.47.47,0,0,1,.44-.2l3.74.45-5-11.16-.27.19a1.3,1.3,0,0,0-.31.31l-1.09,1.5a2.28,2.28,0,0,1-.29.33l-.14.13L27.21,39a.46.46,0,1,1-.84.38l-2.53-5.65-.21,0a2.27,2.27,0,0,1-.68,0l-1.84-.29a1.32,1.32,0,0,0-.38,0Zm-2.9.68a1.49,1.49,0,0,1-.78-.22L15.1,33a2.07,2.07,0,0,0-1.39-.28L11.87,33a1.5,1.5,0,0,1-1.44-.6l-1.09-1.5a2.06,2.06,0,0,0-1.18-.79l-1.81-.44a1.49,1.49,0,0,1-1.1-1.1L4.8,26.8A2.06,2.06,0,0,0,4,25.62l-1.5-1.09a1.49,1.49,0,0,1-.6-1.44l.29-1.84a2.06,2.06,0,0,0-.28-1.39L1,18.26a1.49,1.49,0,0,1,0-1.56l1-1.59a2.06,2.06,0,0,0,.28-1.39l-.29-1.84a1.49,1.49,0,0,1,.6-1.44L4,9.35a2.06,2.06,0,0,0,.79-1.18l.44-1.81a1.49,1.49,0,0,1,1.1-1.1l1.81-.44A2.06,2.06,0,0,0,9.33,4l1.09-1.5a1.49,1.49,0,0,1,1.44-.6l1.84.29a2.06,2.06,0,0,0,1.39-.28l1.59-1a1.49,1.49,0,0,1,1.56,0l1.59,1a2.07,2.07,0,0,0,1.39.28l1.84-.29a1.49,1.49,0,0,1,1.44.6L25.6,4a2.06,2.06,0,0,0,1.18.79l1.81.44a1.49,1.49,0,0,1,1.1,1.1l.44,1.81a2.06,2.06,0,0,0,.79,1.18l1.5,1.09a1.49,1.49,0,0,1,.6,1.44l-.29,1.84A2.06,2.06,0,0,0,33,15.12l1,1.59a1.49,1.49,0,0,1,0,1.56l-1,1.59a2.06,2.06,0,0,0-.28,1.39L33,23.08a1.49,1.49,0,0,1-.6,1.44l-1.5,1.09a2.06,2.06,0,0,0-.79,1.18l-.44,1.81a1.49,1.49,0,0,1-1.1,1.1l-1.81.44a2.06,2.06,0,0,0-1.18.79l-1.09,1.5a1.49,1.49,0,0,1-1.44.6l-1.84-.29a2.07,2.07,0,0,0-1.39.28l-1.59,1a1.49,1.49,0,0,1-.78.22M14,32.54a2.24,2.24,0,0,1,1.17.33l1.59,1a1.33,1.33,0,0,0,1.36,0l1.59-1a2.25,2.25,0,0,1,1.51-.3l1.84.29a1.31,1.31,0,0,0,1.27-.52l1.09-1.5A2.24,2.24,0,0,1,26.73,30l1.81-.44a1.31,1.31,0,0,0,1-1l.44-1.81a2.24,2.24,0,0,1,.86-1.28l1.5-1.09a1.31,1.31,0,0,0,.52-1.26l-.29-1.84a2.24,2.24,0,0,1,.3-1.51l1-1.59a1.31,1.31,0,0,0,0-1.37l-1-1.59a2.24,2.24,0,0,1-.3-1.51l.29-1.84a1.31,1.31,0,0,0-.52-1.27L30.81,9.5a2.24,2.24,0,0,1-.86-1.28l-.44-1.81a1.31,1.31,0,0,0-1-1L26.73,5a2.24,2.24,0,0,1-1.28-.86l-1.09-1.5a1.31,1.31,0,0,0-1.26-.52l-1.84.29a2.25,2.25,0,0,1-1.51-.3l-1.59-1a1.33,1.33,0,0,0-1.36,0l-1.59,1a2.25,2.25,0,0,1-1.51.3l-1.84-.29a1.31,1.31,0,0,0-1.27.52L9.48,4.14A2.24,2.24,0,0,1,8.2,5l-1.81.44a1.31,1.31,0,0,0-1,1L5,8.22A2.24,2.24,0,0,1,4.12,9.5l-1.5,1.09a1.31,1.31,0,0,0-.52,1.26l.29,1.84a2.24,2.24,0,0,1-.3,1.51l-1,1.59a1.31,1.31,0,0,0,0,1.36l1,1.59a2.24,2.24,0,0,1,.3,1.51L2.1,23.11a1.31,1.31,0,0,0,.52,1.27l1.5,1.09A2.24,2.24,0,0,1,5,26.75l.44,1.81a1.31,1.31,0,0,0,1,1L8.2,30a2.24,2.24,0,0,1,1.28.86l1.09,1.5a1.32,1.32,0,0,0,1.26.52l1.84-.29.35,0" transform="translate(-0.01 -0.01)"/><path id="Path_31" data-name="Path 31" d="M22,25.21a1,1,0,0,1-.47-.13L17.47,22.8l-4.08,2.28a1,1,0,0,1-1.42-1l.91-4.59L9.45,16.3A1,1,0,0,1,10,14.63l4.64-.55,2-4.24a1,1,0,0,1,1.76,0l2,4.24,4.64.55a1,1,0,0,1,.54,1.67l-3.43,3.17L23,24.06a1,1,0,0,1-.77,1.14l-.18,0ZM17.47,22a.37.37,0,0,1,.18,0l4.68,2.62-1-5.26a.38.38,0,0,1,.11-.35l3.94-3.64L20,14.79a.37.37,0,0,1-.29-.21L17.47,9.7l-2.25,4.87a.37.37,0,0,1-.29.21l-5.33.63,3.94,3.64a.37.37,0,0,1,.11.34l-1,5.26,4.68-2.62a.37.37,0,0,1,.18,0" transform="translate(-0.01 -0.01)"/><path id="Path_32" data-name="Path 32" d="M22,25.3h0a1.07,1.07,0,0,1-.52-.14l-4-2.26-4,2.26A1.06,1.06,0,0,1,11.88,24l.9-4.53L9.38,16.36A1.06,1.06,0,0,1,10,14.54L14.57,14l1.94-4.2a1.06,1.06,0,0,1,1.92,0L20.36,14l4.59.54a1.06,1.06,0,0,1,.59,1.83L22.16,19.5l.9,4.53a1.06,1.06,0,0,1-.84,1.25l-.2,0m-4.55-2.6,0,0L21.59,25a.88.88,0,0,0,1.29-.93L22,19.44l3.47-3.21a.88.88,0,0,0-.49-1.51l-4.69-.56-2-4.29a.88.88,0,0,0-1.59,0l-2,4.29L10,14.72a.88.88,0,0,0-.49,1.51L13,19.44l-.92,4.64a.88.88,0,0,0,1.29.93Zm5,2.15L17.6,22.14a.28.28,0,0,0-.27,0l-4.86,2.72,1.08-5.46a.28.28,0,0,0-.08-.26L9.39,15.36l5.53-.66a.28.28,0,0,0,.22-.16l2.33-5.05,2.33,5.05a.28.28,0,0,0,.22.16l5.53.66-4.08,3.78a.28.28,0,0,0-.08.26ZM9.8,15.49,13.6,19a.46.46,0,0,1,.14.43l-1,5.07L17.24,22a.47.47,0,0,1,.45,0L22.2,24.5l-1-5.07a.47.47,0,0,1,.14-.43l3.8-3.51L20,14.89a.47.47,0,0,1-.37-.27L17.47,9.93,15.3,14.62a.47.47,0,0,1-.37.27Z" transform="translate(-0.01 -0.01)"/></g></svg>