<svg id="Layer_1" data-name="Layer 1" xmlns="http://www.w3.org/2000/svg" viewBox="0 0 46.37 46.43"><title>parts-icon-3</title><g id="Group_40" data-name="Group 40"><path id="Path_15" data-name="Path 15" d="M36.53,46.39h-.09a8.14,8.14,0,0,1-1.74-.58.42.42,0,0,1-.24-.34l-.13-1.38-.14-.1-.33-.24-.14-.11-1.31.3h-.1A.42.42,0,0,1,32,43.8a8.52,8.52,0,0,1-1.08-1.51.42.42,0,0,1,0-.42l.69-1.18-.06-.16c0-.14-.09-.28-.13-.42l0-.17-1.24-.55a.42.42,0,0,1-.25-.38V37.23a.42.42,0,0,1,.25-.38l1.24-.55,0-.17c0-.15.08-.29.13-.42l.06-.16-.69-1.18a.42.42,0,0,1,0-.41A8.44,8.44,0,0,1,32,32.45a.42.42,0,0,1,.4-.13l1.31.3.14-.11.33-.24.14-.1.13-1.38a.42.42,0,0,1,.24-.34,8.14,8.14,0,0,1,1.74-.58.41.41,0,0,1,.4.14l.91,1.06h.72L39.37,30a.41.41,0,0,1,.4-.14,8.13,8.13,0,0,1,1.74.58.42.42,0,0,1,.24.34l.13,1.38.14.1.33.24.14.11,1.31-.3h.1a.41.41,0,0,1,.31.14A8.51,8.51,0,0,1,45.28,34a.42.42,0,0,1,0,.42l-.69,1.18.06.16c0,.14.09.28.13.42l0,.17,1.24.55a.42.42,0,0,1,.25.38V39a.42.42,0,0,1-.25.38l-1.24.55,0,.17c0,.14-.08.27-.13.42l-.06.16.69,1.18a.42.42,0,0,1,0,.42,8.52,8.52,0,0,1-1.08,1.51.41.41,0,0,1-.4.13l-1.31-.3-.14.11L42,44l-.14.1-.12,1.38a.42.42,0,0,1-.24.34,8.12,8.12,0,0,1-1.74.58H39.7a.42.42,0,0,1-.32-.15l-.91-1.05h-.72l-.91,1.05a.42.42,0,0,1-.32.15m2.13-2a.42.42,0,0,1,.32.15l.87,1,.22-.06c.22-.06.44-.14.67-.23l.21-.08.12-1.35a.42.42,0,0,1,.2-.32,6.18,6.18,0,0,0,.83-.61.41.41,0,0,1,.28-.11h.09l1.28.29.14-.18c.15-.19.3-.4.43-.6l.12-.19-.67-1.16a.42.42,0,0,1,0-.37,6.25,6.25,0,0,0,.31-1,.42.42,0,0,1,.24-.29l1.19-.52V37.51L44.3,37a.42.42,0,0,1-.24-.29,6.23,6.23,0,0,0-.31-1,.43.43,0,0,1,0-.37l.67-1.15L44.32,34c-.13-.2-.28-.41-.43-.6l-.14-.18-1.28.29h-.09a.42.42,0,0,1-.28-.1,6.18,6.18,0,0,0-.83-.62.42.42,0,0,1-.2-.32l-.12-1.34L40.74,31c-.22-.09-.45-.16-.67-.23l-.22-.06-.87,1a.42.42,0,0,1-.32.15h-1.1a.42.42,0,0,1-.32-.15l-.87-1-.22.06c-.22.06-.44.14-.67.23l-.21.08-.12,1.35a.42.42,0,0,1-.2.32,6.19,6.19,0,0,0-.83.61.42.42,0,0,1-.37.1l-1.28-.29-.14.18a6.89,6.89,0,0,0-.43.6l-.12.19.67,1.16a.42.42,0,0,1,0,.37,6.32,6.32,0,0,0-.31,1,.42.42,0,0,1-.24.29l-1.19.52v1.23l1.18.52a.42.42,0,0,1,.24.29,6.26,6.26,0,0,0,.31,1,.43.43,0,0,1,0,.37l-.67,1.15.12.19a7.37,7.37,0,0,0,.43.6l.14.18,1.28-.29a.42.42,0,0,1,.37.1,6.13,6.13,0,0,0,.83.62.42.42,0,0,1,.2.32l.12,1.34.21.08c.22.09.45.16.67.23l.22.06.87-1a.42.42,0,0,1,.32-.15Z" transform="translate(0 0)"/><path id="Path_16" data-name="Path 16" d="M36.53,46.43h-.09a8.18,8.18,0,0,1-1.75-.59.45.45,0,0,1-.26-.37L34.3,44.1,34.17,44l-.33-.24-.12-.1-1.29.3a.45.45,0,0,1-.44-.14,8.54,8.54,0,0,1-1.09-1.52.46.46,0,0,1,0-.45l.68-1.17-.05-.14c0-.14-.09-.28-.13-.42l0-.15-1.23-.54a.45.45,0,0,1-.27-.41V37.24a.45.45,0,0,1,.27-.41l1.23-.54,0-.15c0-.15.08-.29.13-.42l.05-.14L30.9,34.4a.45.45,0,0,1,0-.45A8.48,8.48,0,0,1,32,32.43a.46.46,0,0,1,.44-.14l1.3.3.12-.1.33-.24.13-.09.12-1.36a.45.45,0,0,1,.26-.37,8.18,8.18,0,0,1,1.75-.59.45.45,0,0,1,.43.15l.9,1h.69l.9-1a.45.45,0,0,1,.44-.15,8.17,8.17,0,0,1,1.75.59.45.45,0,0,1,.26.37l.12,1.36.13.09.33.24.12.1,1.29-.3a.45.45,0,0,1,.44.14A8.55,8.55,0,0,1,45.32,34a.46.46,0,0,1,0,.45l-.68,1.17.05.14c.05.14.09.28.13.42l0,.15,1.23.54a.45.45,0,0,1,.27.41V39a.45.45,0,0,1-.27.41L44.86,40l0,.15c0,.14-.08.28-.13.42l-.05.14.68,1.17a.46.46,0,0,1,0,.45,8.55,8.55,0,0,1-1.09,1.52.46.46,0,0,1-.44.14l-1.3-.3-.12.1L42,44l-.13.09-.12,1.36a.45.45,0,0,1-.26.37,8.18,8.18,0,0,1-1.75.59.46.46,0,0,1-.44-.15l-.9-1h-.69l-.9,1a.45.45,0,0,1-.34.16m-2.79-2.83.15.12.33.24.15.11.13,1.39a.39.39,0,0,0,.22.31,8.1,8.1,0,0,0,1.73.58.38.38,0,0,0,.37-.13l.92-1.07h.75l.92,1.07a.38.38,0,0,0,.37.13,8.1,8.1,0,0,0,1.74-.58.39.39,0,0,0,.22-.31l.13-1.39L42,44l.33-.24.15-.12,1.33.3a.38.38,0,0,0,.37-.12,8.48,8.48,0,0,0,1.08-1.51.39.39,0,0,0,0-.38l-.7-1.2.06-.17c0-.14.09-.28.13-.42l.05-.18,1.26-.55a.38.38,0,0,0,.23-.35V37.23a.38.38,0,0,0-.23-.35l-1.26-.55-.05-.18c0-.14-.08-.27-.13-.42l-.06-.17.7-1.2a.39.39,0,0,0,0-.38,8.48,8.48,0,0,0-1.08-1.51.38.38,0,0,0-.37-.12l-1.32.3-.15-.12L42,32.29l-.15-.11-.13-1.39a.39.39,0,0,0-.22-.31,8.1,8.1,0,0,0-1.73-.58.38.38,0,0,0-.37.13l-.92,1.07h-.75L36.81,30a.38.38,0,0,0-.37-.12,8.11,8.11,0,0,0-1.74.58.39.39,0,0,0-.22.31l-.13,1.39-.15.11-.33.24-.15.12-1.33-.3a.39.39,0,0,0-.37.12A8.41,8.41,0,0,0,31,34a.39.39,0,0,0,0,.38l.69,1.2-.06.17c0,.13-.09.27-.13.42l-.05.18-1.26.55a.38.38,0,0,0-.23.35V39a.38.38,0,0,0,.23.35l1.26.55.05.18c0,.14.08.27.13.42l.06.17h0L31,41.89a.39.39,0,0,0,0,.38A8.49,8.49,0,0,0,32,43.78a.38.38,0,0,0,.37.12Zm6.1,2-.89-1a.38.38,0,0,0-.29-.13h-1.1a.38.38,0,0,0-.29.13l-.89,1-.25-.07c-.22-.06-.44-.14-.67-.23l-.23-.09-.12-1.36a.39.39,0,0,0-.18-.29,6.18,6.18,0,0,1-.84-.62.39.39,0,0,0-.34-.09l-1.3.3-.16-.2c-.15-.19-.3-.39-.43-.6l-.13-.21.68-1.17a.39.39,0,0,0,0-.34,6.29,6.29,0,0,1-.32-1,.38.38,0,0,0-.22-.27l-1.2-.53V37.5l1.2-.53a.38.38,0,0,0,.22-.27,6.32,6.32,0,0,1,.32-1,.39.39,0,0,0,0-.34l-.68-1.17.13-.21a7.26,7.26,0,0,1,.43-.6l.16-.2,1.3.3a.39.39,0,0,0,.34-.09,6.24,6.24,0,0,1,.84-.62.39.39,0,0,0,.18-.29l.12-1.37.23-.09a7,7,0,0,1,.67-.23l.25-.07.89,1a.38.38,0,0,0,.29.13h1.1a.38.38,0,0,0,.29-.13l.89-1,.24.07c.22.06.44.14.67.23l.23.09.12,1.36a.39.39,0,0,0,.18.29,6.23,6.23,0,0,1,.84.62.38.38,0,0,0,.34.09l1.3-.3.16.2c.15.2.3.4.43.6l.13.21-.68,1.17a.39.39,0,0,0,0,.34,6.26,6.26,0,0,1,.32,1,.38.38,0,0,0,.22.27l1.2.53v1.27l-1.2.53a.38.38,0,0,0-.22.27,6.3,6.3,0,0,1-.32,1,.39.39,0,0,0,0,.34l.68,1.17-.13.21a7.28,7.28,0,0,1-.43.6l-.16.2-1.3-.3a.38.38,0,0,0-.34.09,6.23,6.23,0,0,1-.84.62.39.39,0,0,0-.18.29L41,45.16l-.23.09a7,7,0,0,1-.67.23Zm-2.28-1.23h1.1a.45.45,0,0,1,.34.16l.86,1,.2-.06c.22-.06.44-.14.66-.23l.19-.08L41,43.79a.46.46,0,0,1,.21-.34,6.16,6.16,0,0,0,.83-.61.45.45,0,0,1,.4-.1l1.26.29.13-.17a6.61,6.61,0,0,0,.43-.6l.11-.17-.66-1.14a.46.46,0,0,1,0-.4,6.23,6.23,0,0,0,.31-1,.45.45,0,0,1,.26-.31l1.16-.51V37.54L44.27,37a.45.45,0,0,1-.26-.31,6.24,6.24,0,0,0-.31-1,.46.46,0,0,1,0-.4l.66-1.14L44.28,34c-.13-.2-.28-.4-.43-.6l-.13-.17-1.26.29a.45.45,0,0,1-.4-.1,6.15,6.15,0,0,0-.83-.61.46.46,0,0,1-.21-.34l-.12-1.32-.19-.08a6.94,6.94,0,0,0-.66-.23l-.2-.06-.86,1a.45.45,0,0,1-.34.16h-1.1a.45.45,0,0,1-.34-.16l-.86-1-.2.06c-.22.06-.44.14-.66.23l-.19.08-.12,1.32a.46.46,0,0,1-.21.34,6.12,6.12,0,0,0-.83.61.46.46,0,0,1-.4.1l-1.26-.29-.13.17a7.3,7.3,0,0,0-.43.6l-.11.17.66,1.14a.46.46,0,0,1,0,.4,6.27,6.27,0,0,0-.31,1,.45.45,0,0,1-.26.31l-1.16.51v1.19l1.16.51a.45.45,0,0,1,.26.31,6.19,6.19,0,0,0,.31,1,.46.46,0,0,1,0,.4l-.66,1.14.11.17c.13.21.28.41.43.6l.13.16,1.25-.29a.46.46,0,0,1,.4.1,6.11,6.11,0,0,0,.83.61.46.46,0,0,1,.21.34l.12,1.32.19.08c.22.09.45.16.66.23l.2.06.86-1a.45.45,0,0,1,.34-.16" transform="translate(0 0)"/><path id="Path_17" data-name="Path 17" d="M38.11,41.69a3.56,3.56,0,1,1,3.56-3.56h0a3.56,3.56,0,0,1-3.56,3.56m0-6.28a2.72,2.72,0,1,0,2.72,2.72,2.72,2.72,0,0,0-2.72-2.72" transform="translate(0 0)"/><path id="Path_18" data-name="Path 18" d="M38.11,41.72a3.59,3.59,0,1,1,3.59-3.59h0a3.6,3.6,0,0,1-3.59,3.59m0-7.11a3.52,3.52,0,1,0,3.52,3.52h0a3.53,3.53,0,0,0-3.52-3.52m0,6.28a2.75,2.75,0,1,1,2.75-2.75,2.75,2.75,0,0,1-2.75,2.75m0-5.44a2.68,2.68,0,1,0,2.69,2.68,2.69,2.69,0,0,0-2.69-2.68" transform="translate(0 0)"/><path id="Path_19" data-name="Path 19" d="M21.64,26A11.4,11.4,0,1,1,33,14.59,11.4,11.4,0,0,1,21.64,26Zm0-22a10.56,10.56,0,1,0,3,20.69l.75-.22-.66-.43-.15-.1-.4-.27a.42.42,0,0,1-.15-.47l.43-1.32-.17-.16-.42-.42-.16-.17-1.32.43a.42.42,0,0,1-.47-.15,11.43,11.43,0,0,1-1.4-2.39.42.42,0,0,1,.11-.47l1-.94-.07-.22c-.06-.19-.11-.38-.15-.57l-.05-.23-1.36-.29a.42.42,0,0,1-.33-.41V13.26a.42.42,0,0,1,.33-.41l1.36-.29.05-.23c0-.19.1-.39.15-.57l.07-.22-1-.94a.42.42,0,0,1-.11-.48A11.38,11.38,0,0,1,22,7.74a.43.43,0,0,1,.34-.17l.13,0L23.73,8l.16-.17.42-.42.17-.16L24,6a.42.42,0,0,1,.15-.47l.4-.27.15-.1.65-.43-.75-.22a10.52,10.52,0,0,0-3-.44Zm2.24,16.23a.42.42,0,0,1,.32.15,9,9,0,0,0,1,1,.42.42,0,0,1,.13.45l-.43,1.3.23.15a11.2,11.2,0,0,0,1,.59l.17.09.17-.09a10.58,10.58,0,0,0,2.95-2.3l.4-.44L29.31,21a6.68,6.68,0,0,1,0-12.91L29.88,8l-.4-.44a10.58,10.58,0,0,0-2.95-2.3l-.17-.09-.17.09a11.35,11.35,0,0,0-1,.59L24.94,6l.43,1.3a.42.42,0,0,1-.13.45,9,9,0,0,0-1,1,.42.42,0,0,1-.45.13l-1.3-.43-.16.23a10.71,10.71,0,0,0-.72,1.22l-.12.25,1,.92a.42.42,0,0,1,.11.45A8.93,8.93,0,0,0,22.2,13a.42.42,0,0,1-.33.34l-1.31.28v2l1.31.28a.42.42,0,0,1,.33.33,8.87,8.87,0,0,0,.39,1.42.42.42,0,0,1-.11.45l-1,.92.13.25a10.66,10.66,0,0,0,.72,1.22l.16.23,1.3-.43.13,0M30.21,8.81a5.85,5.85,0,0,0,0,11.57h0l.23,0,.13-.2A10.52,10.52,0,0,0,30.57,9l-.13-.2Z" transform="translate(0 0)"/><path id="Path_20" data-name="Path 20" d="M21.63,26h0A11.44,11.44,0,1,1,33.07,14.59,11.44,11.44,0,0,1,21.63,26Zm0-22.8A11.37,11.37,0,1,0,33,14.6h0A11.38,11.38,0,0,0,21.63,3.23m0,22a10.6,10.6,0,0,1,0-21.2h0a10.55,10.55,0,0,1,3,.44l.82.25-.71.47-.15.1-.4.27a.39.39,0,0,0-.13.43l.44,1.34-.19.17-.42.42-.17.19L22.4,7.63a.4.4,0,0,0-.43.13,11.33,11.33,0,0,0-1.39,2.38.38.38,0,0,0,.1.44l1.06,1-.07.24c-.06.18-.11.37-.15.56l-.06.25-1.39.29a.39.39,0,0,0-.31.38v2.67a.39.39,0,0,0,.31.38l1.39.29.06.25c0,.19.1.38.15.57l.07.24-1.06,1a.38.38,0,0,0-.1.44A11.39,11.39,0,0,0,22,21.43a.39.39,0,0,0,.43.13l1.34-.44.17.19.42.42.19.17-.44,1.34a.38.38,0,0,0,.13.43l.4.27.15.1.72.47-.82.24a10.61,10.61,0,0,1-3,.44M21.62,4v0a10.53,10.53,0,1,0,3,20.62l.68-.2-.59-.39-.15-.1-.4-.27a.45.45,0,0,1-.16-.5l.43-1.3-.15-.15-.42-.42-.15-.15-1.3.43a.46.46,0,0,1-.5-.16,11.48,11.48,0,0,1-1.4-2.4.45.45,0,0,1,.11-.51l1-.92-.06-.2c-.06-.19-.11-.38-.15-.57l0-.2L20,16.39a.46.46,0,0,1-.36-.44V13.26a.46.46,0,0,1,.36-.44l1.34-.28,0-.2c0-.2.1-.39.15-.57l.06-.2-1-.92a.45.45,0,0,1-.11-.51,11.4,11.4,0,0,1,1.4-2.4.47.47,0,0,1,.51-.16L23.71,8l.15-.15.42-.42.15-.14L24,6a.45.45,0,0,1,.16-.5l.4-.27.16-.1.59-.39-.68-.2a10.48,10.48,0,0,0-3-.44Zm4.73,20L26.16,24a11.28,11.28,0,0,1-1-.59l-.26-.17.44-1.33a.38.38,0,0,0-.12-.41,9,9,0,0,1-1.05-1,.39.39,0,0,0-.41-.12l-1.32.44-.17-.25a10.68,10.68,0,0,1-.72-1.23L21.39,19l1.05-.94a.38.38,0,0,0,.11-.42,8.87,8.87,0,0,1-.39-1.43.38.38,0,0,0-.3-.31l-1.33-.28V13.57l1.33-.28a.38.38,0,0,0,.3-.31,9,9,0,0,1,.39-1.43.38.38,0,0,0-.11-.42l-1.05-.94.14-.27a10.77,10.77,0,0,1,.72-1.23l.17-.25,1.32.44a.39.39,0,0,0,.42-.12,9,9,0,0,1,1-1,.38.38,0,0,0,.12-.41L24.88,6l.26-.17a11.37,11.37,0,0,1,1-.59l.19-.09.18.1a10.61,10.61,0,0,1,3,2.31l.43.48-.63.17a6.65,6.65,0,0,0,0,12.84l.63.17-.43.48a10.61,10.61,0,0,1-3,2.31ZM25,23.19l.21.14a11.13,11.13,0,0,0,1,.59l.15.08.15-.08a10.55,10.55,0,0,0,2.94-2.29l.36-.4-.52-.14a6.72,6.72,0,0,1,0-13L29.8,8l-.36-.4A10.55,10.55,0,0,0,26.5,5.28l-.15-.08-.15.08a11.36,11.36,0,0,0-1,.59L25,6l.42,1.28a.45.45,0,0,1-.14.49,8.94,8.94,0,0,0-1,1,.46.46,0,0,1-.49.14l-1.27-.42-.14.21A10.66,10.66,0,0,0,21.58,10l-.11.23,1,.91a.45.45,0,0,1,.13.49A8.88,8.88,0,0,0,22.22,13a.45.45,0,0,1-.35.36l-1.28.27v1.94l1.28.27a.45.45,0,0,1,.35.36,8.82,8.82,0,0,0,.38,1.42.45.45,0,0,1-.12.49l-1,.91.11.23a10.62,10.62,0,0,0,.72,1.22l.14.21,1.27-.42a.46.46,0,0,1,.49.14,8.94,8.94,0,0,0,1,1,.45.45,0,0,1,.14.49Zm5.48-2.74-.26,0a5.88,5.88,0,0,1,0-11.64l.26,0,.14.22a10.56,10.56,0,0,1,0,11.28ZM30.2,8.85a5.81,5.81,0,0,0,0,11.5h0l.21,0,.11-.18a10.49,10.49,0,0,0,0-11.2l-.11-.18Z" transform="translate(0 0)"/><path id="Path_21" data-name="Path 21" d="M4.38,42.47a.42.42,0,0,1-.26-.09L.19,39.24a.42.42,0,0,1-.06-.59L9.28,27.38l-2-1.47a.42.42,0,0,1-.17-.28.42.42,0,0,1,.09-.32l2.26-2.83-.14-.22A13.64,13.64,0,0,1,8.61,21,14.54,14.54,0,0,1,15.16,1.55,14.38,14.38,0,0,1,21.61,0a14.52,14.52,0,0,1,13,8.07l.24.48,1.22-1.33a.42.42,0,0,1,.39-.13,7.31,7.31,0,0,1,1.57.53A.42.42,0,0,1,38.3,8l.11,1.22.14.1.24.18.14.1,1.16-.26h.1a.42.42,0,0,1,.31.14,7.7,7.7,0,0,1,1,1.37.42.42,0,0,1,0,.41l-.61,1,.05.16.1.31,0,.16,1.1.48a.42.42,0,0,1,.25.38v1.6a.42.42,0,0,1-.25.38l-1.1.48,0,.17c0,.12-.06.22-.1.31l-.05.16.61,1a.42.42,0,0,1,0,.42,7.72,7.72,0,0,1-1,1.37.41.41,0,0,1-.41.13l-1.16-.26-.14.1-.24.18-.14.1L38.3,21.2a.42.42,0,0,1-.24.34,7.33,7.33,0,0,1-1.58.53H36.4a.42.42,0,0,1-.31-.14L34.87,20.6l-.24.48a14.36,14.36,0,0,1-15.36,7.85l-.21,0-2.58,3.23a.42.42,0,0,1-.57.08L14,30.84,4.71,42.32a.42.42,0,0,1-.33.15M1,38.86l3.27,2.62,9-11.12L10,27.88ZM8.12,25.5l8,5.78,2.06-2.58-.53-.15a14.48,14.48,0,0,1-7.38-5l-.29-.36ZM21.64.9a13.7,13.7,0,1,0,13.7,13.7h0A13.74,13.74,0,0,0,21.64.9ZM35.22,9.45l.08.21a14.27,14.27,0,0,1,0,9.88l-.08.21,1.33,1.46.22-.06.51-.17.21-.08.11-1.18a.42.42,0,0,1,.2-.32,5.54,5.54,0,0,0,.74-.55.41.41,0,0,1,.37-.09L40,19l.14-.18c.11-.15.22-.3.32-.45l.12-.19-.59-1a.42.42,0,0,1,0-.37,5.69,5.69,0,0,0,.28-.9.42.42,0,0,1,.24-.29l1-.46V14.07l-1-.46a.42.42,0,0,1-.24-.29,5.67,5.67,0,0,0-.28-.9A.42.42,0,0,1,40,12l.59-1-.12-.19c-.1-.15-.21-.31-.32-.45L40,10.2l-1.12.26h-.1a.41.41,0,0,1-.28-.1,5.49,5.49,0,0,0-.74-.55.42.42,0,0,1-.2-.32l-.11-1.18-.21-.08-.51-.17L36.54,8Z" transform="translate(0 0)"/><path id="Path_22" data-name="Path 22" d="M4.37,42.5a.45.45,0,0,1-.28-.1L.17,39.27a.46.46,0,0,1-.07-.64L9.23,27.39l-2-1.44a.45.45,0,0,1-.18-.31.46.46,0,0,1,.1-.34L9.4,22.49l-.12-.2A13.53,13.53,0,0,1,8.58,21,14.57,14.57,0,0,1,15.15,1.52,14.41,14.41,0,0,1,21.61,0,14.56,14.56,0,0,1,34.66,8.1l.21.43,1.19-1.3a.46.46,0,0,1,.43-.14,7.35,7.35,0,0,1,1.58.53.46.46,0,0,1,.26.37l.11,1.2.13.09.24.18.12.1,1.14-.26a.45.45,0,0,1,.44.14,7.75,7.75,0,0,1,1,1.38.45.45,0,0,1,0,.45l-.6,1,0,.14.1.31,0,.15,1.08.48a.45.45,0,0,1,.27.41v1.6a.45.45,0,0,1-.27.41l-1.08.48,0,.15c0,.12-.07.22-.1.32l0,.14.6,1a.46.46,0,0,1,0,.45,7.74,7.74,0,0,1-1,1.37.45.45,0,0,1-.44.14l-1.14-.26-.12.09-.24.18-.12.09-.11,1.2a.46.46,0,0,1-.26.37,7.36,7.36,0,0,1-1.58.53.45.45,0,0,1-.43-.14l-1.19-1.31-.21.44A14.4,14.4,0,0,1,19.26,29l-.19,0L16.5,32.13a.45.45,0,0,1-.62.08L14,30.88,4.73,42.33a.45.45,0,0,1-.35.17M21.61.07a14.34,14.34,0,0,0-6.43,1.51A14.5,14.5,0,0,0,8.64,21c.21.43.45.85.7,1.25l.15.24L7.21,25.33a.39.39,0,0,0-.08.29.38.38,0,0,0,.16.26l2,1.49,0,0L.16,38.67a.39.39,0,0,0,.06.54l3.92,3.14a.39.39,0,0,0,.54-.06L14,30.78l1.89,1.38a.38.38,0,0,0,.53-.07L19,28.84l.23,0A14.33,14.33,0,0,0,34.6,21.06l.26-.53,1.25,1.38a.39.39,0,0,0,.36.12A7.29,7.29,0,0,0,38,21.5a.39.39,0,0,0,.22-.31l.11-1.24.15-.11.24-.18.15-.11,1.17.27a.38.38,0,0,0,.37-.12,7.68,7.68,0,0,0,1-1.36.39.39,0,0,0,0-.38l-.62-1.06.06-.17.1-.31.05-.18,1.11-.49a.38.38,0,0,0,.23-.35V13.8a.38.38,0,0,0-.23-.35L41,13,41,12.77c0-.12-.06-.22-.1-.31l-.06-.17.62-1.06a.39.39,0,0,0,0-.38,7.66,7.66,0,0,0-1-1.36.38.38,0,0,0-.37-.12l-1.17.27-.15-.11-.24-.18-.15-.11L38.27,8A.39.39,0,0,0,38,7.68a7.28,7.28,0,0,0-1.57-.53.39.39,0,0,0-.36.12L34.85,8.64l-.26-.52A14.49,14.49,0,0,0,21.6.07M4.32,41.51,1,38.85l0,0,8.94-11,3.44,2.51ZM1.09,38.84l3.21,2.57,9-11.07L10,27.92Zm15-7.52,0,0-8-5.8,1.88-2.34.31.4a14.45,14.45,0,0,0,7.36,5l.57.17ZM8.16,25.49l7.9,5.74,2-2.51-.48-.14a14.52,14.52,0,0,1-7.39-5l-.26-.33Zm13.47,2.84a13.74,13.74,0,0,1,0-27.47h0a13.74,13.74,0,0,1,0,27.47m0-27.44v0A13.67,13.67,0,1,0,35.3,14.6,13.67,13.67,0,0,0,21.63.93Zm14.9,20.34-1.35-1.49.08-.23a14.24,14.24,0,0,0,0-9.85l-.08-.23v0L36.54,8l.24.07.52.18.23.09.11,1.21a.39.39,0,0,0,.18.29,5.54,5.54,0,0,1,.75.56.38.38,0,0,0,.34.09L40,10.16l.16.2c.11.15.22.3.33.46l.14.21-.6,1a.39.39,0,0,0,0,.34,5.73,5.73,0,0,1,.28.9.38.38,0,0,0,.22.27l1.06.47v1.1l-1.06.47a.38.38,0,0,0-.22.27,5.74,5.74,0,0,1-.28.91.39.39,0,0,0,0,.34l.6,1-.14.21c-.1.16-.21.31-.33.46L40,19l-1.15-.26a.38.38,0,0,0-.34.09,5.6,5.6,0,0,1-.75.55.39.39,0,0,0-.18.29l-.11,1.21-.23.09-.52.17Zm-1.28-1.51,1.3,1.43.2-.06.51-.17.19-.07.11-1.16a.46.46,0,0,1,.21-.34,5.5,5.5,0,0,0,.74-.55.45.45,0,0,1,.4-.1L40,19l.13-.17c.11-.15.22-.3.32-.45l.11-.17-.58-1a.46.46,0,0,1,0-.4,5.66,5.66,0,0,0,.28-.9.45.45,0,0,1,.26-.31l1-.45v-1l-1-.45a.45.45,0,0,1-.26-.31,5.65,5.65,0,0,0-.28-.89.46.46,0,0,1,0-.4l.58-1-.11-.17c-.1-.15-.21-.3-.32-.45L40,10.24l-1.1.25a.45.45,0,0,1-.4-.1,5.46,5.46,0,0,0-.74-.55.46.46,0,0,1-.21-.34l-.11-1.16-.19-.07-.51-.17L36.55,8l-1.3,1.41.07.19a14.31,14.31,0,0,1,0,9.9Z" transform="translate(0 0)"/></g></svg>