<svg id="Layer_1" data-name="Layer 1" xmlns="http://www.w3.org/2000/svg" viewBox="0 0 46.09 46.06"><title>parts-icon-4</title><g id="Group_44" data-name="Group 44"><path id="Path_43" data-name="Path 43" d="M22.69,23.65c-2.87-.15-5.14-2.12-5.14-4.5s2.47-4.51,5.51-4.51,5.26,1.83,5.49,4.15h-1.3c-.24-1.61-2-2.86-4.19-2.86-2.33,0-4.22,1.45-4.22,3.22s1.7,3.07,3.85,3.21Z" transform="translate(-0.01 0)"/><path id="Path_44" data-name="Path 44" d="M23.06,31.39c-2.89,0-5.26-1.83-5.49-4.15h1.3c.24,1.61,2,2.86,4.19,2.86,2.33,0,4.22-1.45,4.22-3.22s-1.7-3.07-3.85-3.21V22.38c2.87.15,5.14,2.12,5.14,4.5s-2.47,4.51-5.51,4.51" transform="translate(-0.01 0)"/><rect id="Rectangle_26" data-name="Rectangle 26" x="22.41" y="12.66" width="1.29" height="2.25"/><rect id="Rectangle_27" data-name="Rectangle 27" x="22.41" y="31.11" width="1.29" height="2.25"/><path id="Path_45" data-name="Path 45" d="M23.06,46.05a4,4,0,0,1-3.2-1.63,2.61,2.61,0,0,0-2.13-1.08,2.56,2.56,0,0,0-1.3.35,4,4,0,0,1-1.9.49A3.87,3.87,0,0,1,10.68,41a2.6,2.6,0,0,0-2.59-2.14H7.69a3.91,3.91,0,0,1-3.14-1.56A3.81,3.81,0,0,1,4,33.91a2.53,2.53,0,0,0-1.52-3.07A3.79,3.79,0,0,1,1,24.72a2.5,2.5,0,0,0,0-3.4,3.75,3.75,0,0,1-.92-3.4,3.84,3.84,0,0,1,2.34-2.71A2.49,2.49,0,0,0,4,12.15,3.76,3.76,0,0,1,4.54,8.8,3.91,3.91,0,0,1,7.68,7.22h.43A2.57,2.57,0,0,0,10.68,5.1a3.85,3.85,0,0,1,3.85-3.22,4,4,0,0,1,1.9.5,2.64,2.64,0,0,0,1.28.33,2.57,2.57,0,0,0,2.13-1.08,4,4,0,0,1,6.39,0,2.62,2.62,0,0,0,2.13,1.1,2.56,2.56,0,0,0,1.3-.35,4,4,0,0,1,1.9-.49,3.87,3.87,0,0,1,3.85,3.22A2.6,2.6,0,0,0,38,7.26h.42A3.84,3.84,0,0,1,41.54,8.8a3.75,3.75,0,0,1,.6,3.34,2.53,2.53,0,0,0,1.52,3.07,3.79,3.79,0,0,1,1.42,6.12,2.5,2.5,0,0,0,0,3.4,3.75,3.75,0,0,1,.92,3.4,3.84,3.84,0,0,1-2.34,2.71,2.49,2.49,0,0,0-1.52,3.06,3.76,3.76,0,0,1-.6,3.36,3.87,3.87,0,0,1-3.14,1.56H38a2.57,2.57,0,0,0-2.57,2.14,3.85,3.85,0,0,1-3.85,3.22,4,4,0,0,1-1.9-.5,2.64,2.64,0,0,0-1.28-.33,2.57,2.57,0,0,0-2.14,1.09,3.86,3.86,0,0,1-3.18,1.63m-5.31-4a3.9,3.9,0,0,1,3.18,1.63,2.65,2.65,0,0,0,4.28,0,3.91,3.91,0,0,1,5.08-1.14,2.64,2.64,0,0,0,1.28.33,2.56,2.56,0,0,0,2.57-2.14,3.82,3.82,0,0,1,3.81-3.21h.45a2.56,2.56,0,0,0,2.1-1.05,2.52,2.52,0,0,0,.4-2.21,3.79,3.79,0,0,1,2.27-4.64,2.51,2.51,0,0,0,1.56-1.8,2.42,2.42,0,0,0-.62-2.24,3.75,3.75,0,0,1,0-5.14,2.46,2.46,0,0,0,.62-2.25,2.53,2.53,0,0,0-1.55-1.8,3.8,3.8,0,0,1-2.27-4.65,2.46,2.46,0,0,0-.4-2.21,2.55,2.55,0,0,0-2.06-1H38A3.88,3.88,0,0,1,34.1,5.28a2.58,2.58,0,0,0-2.57-2.14,2.5,2.5,0,0,0-1.29.35,3.94,3.94,0,0,1-1.9.49,3.9,3.9,0,0,1-3.18-1.63,2.65,2.65,0,0,0-4.29,0A3.92,3.92,0,0,1,17.7,3.94a3.9,3.9,0,0,1-1.9-.5,2.64,2.64,0,0,0-1.29-.32,2.56,2.56,0,0,0-2.57,2.14A3.82,3.82,0,0,1,8.14,8.48H7.69A2.56,2.56,0,0,0,5.6,9.52a2.45,2.45,0,0,0-.38,2.2,3.79,3.79,0,0,1-2.28,4.63,2.51,2.51,0,0,0-1.56,1.8A2.42,2.42,0,0,0,2,20.4a3.75,3.75,0,0,1,0,5.14,2.46,2.46,0,0,0-.62,2.25,2.53,2.53,0,0,0,1.55,1.8,3.8,3.8,0,0,1,2.27,4.65,2.47,2.47,0,0,0,.4,2.21,2.63,2.63,0,0,0,2.11,1h.39A3.88,3.88,0,0,1,12,40.71a2.58,2.58,0,0,0,2.57,2.14,2.5,2.5,0,0,0,1.28-.34A4.3,4.3,0,0,1,17.74,42" transform="translate(-0.01 0)"/><path id="Path_46" data-name="Path 46" d="M23.06,39.24A16.22,16.22,0,1,1,39.28,23h0A16.24,16.24,0,0,1,23.06,39.24m0-31.16A14.94,14.94,0,1,0,38,23h0A15,15,0,0,0,23.06,8.08" transform="translate(-0.01 0)"/><path id="Path_47" data-name="Path 47" d="M23.42,22.38l-.73,0v1.29l.73,0Z" transform="translate(-0.01 0)"/></g></svg>