<svg id="Group_133" data-name="Group 133" xmlns="http://www.w3.org/2000/svg" viewBox="0 0 23.9 27.01"><title>pdf-icon</title><path id="Path_139" data-name="Path 139" d="M22.76,11.22h0V8.83a2.14,2.14,0,0,0-.63-1.52L15.45.63A2.14,2.14,0,0,0,13.93,0h-10A2.74,2.74,0,0,0,1.14,2.74V7.5h0v3.72A2.51,2.51,0,0,0,0,13.32V21a2.51,2.51,0,0,0,1.14,2.1v1.15A2.74,2.74,0,0,0,3.89,27H20a2.74,2.74,0,0,0,2.74-2.74V23.13A2.51,2.51,0,0,0,23.9,21v-7.7A2.51,2.51,0,0,0,22.76,11.22Zm-7.7-9.87L21.41,7.7H16.24a1.19,1.19,0,0,1-1.19-1.19V1.35ZM3.89.79h10a1.36,1.36,0,0,1,.33,0V6.51a2,2,0,0,0,2,2h5.68a1.37,1.37,0,0,1,0,.33v2.06a2.5,2.5,0,0,0-.57-.07H2.51a2.5,2.5,0,0,0-.57.07V7h0V2.74A2,2,0,0,1,3.89.79ZM22,24.28a2,2,0,0,1-2,1.95H3.89a2,2,0,0,1-2-1.95v-.81a2.5,2.5,0,0,0,.57.07H21.4a2.5,2.5,0,0,0,.57-.07ZM23.11,21a1.72,1.72,0,0,1-1.71,1.72H2.51A1.72,1.72,0,0,1,.79,21v-7.7a1.72,1.72,0,0,1,1.72-1.72H21.4a1.72,1.72,0,0,1,1.72,1.72Z" transform="translate(0 0)"/><path id="Path_140" data-name="Path 140" d="M18.72,13.79H16.3a.4.4,0,0,0-.4.4v6a.4.4,0,0,0,.79,0V17.52h1.83a.4.4,0,1,0,.12-.79h-2V14.59h2a.4.4,0,1,0,.12-.79h-.11Z" transform="translate(0 0)"/><path id="Path_141" data-name="Path 141" d="M12.09,13.86H10.44a.4.4,0,0,0-.4.4V20a.44.44,0,0,0,.37.49h1.73a2.52,2.52,0,0,0,2-1,3.77,3.77,0,0,0,.7-2.29C14.85,15.19,13.74,13.86,12.09,13.86Zm0,5.82H10.85c0-.65,0-1.94,0-2.53V14.65H12.1c1.45,0,2,1.3,2,2.52,0,1.46-.79,2.49-1.92,2.51Z" transform="translate(0 0)"/><path id="Path_142" data-name="Path 142" d="M6.86,13.77H5.19a.4.4,0,0,0-.4.4v6a.4.4,0,1,0,.79,0V18H6.86a2.09,2.09,0,1,0,0-4.19Zm0,3.39H5.59c0-.4,0-1,0-1.31v-1.3H6.87a1.3,1.3,0,1,1,0,2.6Z" transform="translate(0 0)"/></svg>