<svg id="Layer_1" data-name="Layer 1" xmlns="http://www.w3.org/2000/svg" viewBox="0 0 31.78 30.22"><defs><style>.cls-1{fill:none;stroke:#000;stroke-miterlimit:10;}</style></defs><title>phone-icon-1</title><path id="Path_169" data-name="Path 169" class="cls-1" d="M1.12,12.89A12,12,0,0,1,4,1,.91.91,0,0,1,4.51.71C6.33.36,7.51.43,8,1a26,26,0,0,1,3.43,7c0,1.22-.59,2.29-2.23,4a12.14,12.14,0,0,0,4.4,5.61,21.76,21.76,0,0,0,5.56,3.62,12.8,12.8,0,0,0,3.29-3.71l.11-.14A2,2,0,0,1,25,17.22a18.3,18.3,0,0,1,1.8,1.11c1,.69,2.46,1.63,4.13,2.56a.91.91,0,0,1,.44,1c0,.08,0,.15,0,.23a8.35,8.35,0,0,1-9,7.6h0a18.85,18.85,0,0,1-2.81-.23C10.7,28.12,3.82,19.94,1.12,12.89Z" transform="translate(-0.1 0.01)"/></svg>