<svg id="Layer_1" data-name="Layer 1" xmlns="http://www.w3.org/2000/svg" viewBox="0 0 29.22 29.22"><title>phone-icon-2</title><g id="Group_297" data-name="Group 297"><g id="Group_296" data-name="Group 296"><g id="Group_295" data-name="Group 295"><path id="Path_170" data-name="Path 170" d="M16.61,16.53a1.08,1.08,0,1,0,1.08,1.08,1.08,1.08,0,0,0-1.08-1.08Zm0,1.45a.36.36,0,1,1,.36-.36h0A.36.36,0,0,1,16.61,18Z" transform="translate(0)"/><path id="Path_171" data-name="Path 171" d="M21,16.53a1.08,1.08,0,1,0,1.08,1.08A1.08,1.08,0,0,0,21,16.53ZM21,18a.36.36,0,1,1,.36-.36h0A.36.36,0,0,1,21,18Z" transform="translate(0)"/><path id="Path_172" data-name="Path 172" d="M25.61,16.53a1.08,1.08,0,1,0,1.08,1.08,1.08,1.08,0,0,0-1.08-1.08Zm0,1.45a.36.36,0,1,1,.36-.36h0A.36.36,0,0,1,25.61,18Z" transform="translate(0)"/><path id="Path_173" data-name="Path 173" d="M16.61,20.54a1.08,1.08,0,1,0,1.08,1.08,1.08,1.08,0,0,0-1.08-1.08Zm0,1.45a.36.36,0,1,1,.36-.36h0A.36.36,0,0,1,16.61,22Z" transform="translate(0)"/><path id="Path_174" data-name="Path 174" d="M21,20.54a1.08,1.08,0,1,0,1.08,1.08A1.08,1.08,0,0,0,21,20.54ZM21,22a.36.36,0,1,1,.36-.36h0A.36.36,0,0,1,21,22Z" transform="translate(0)"/><path id="Path_175" data-name="Path 175" d="M25.61,20.54a1.08,1.08,0,1,0,1.08,1.08,1.08,1.08,0,0,0-1.08-1.08Zm0,1.45a.36.36,0,1,1,.36-.36h0A.36.36,0,0,1,25.61,22Z" transform="translate(0)"/><path id="Path_176" data-name="Path 176" d="M16.61,25.25a1.08,1.08,0,1,0,1.08,1.08A1.08,1.08,0,0,0,16.61,25.25Zm0,1.45a.36.36,0,1,1,.36-.36h0A.36.36,0,0,1,16.61,26.69Z" transform="translate(0)"/><path id="Path_177" data-name="Path 177" d="M21,25.25a1.08,1.08,0,1,0,1.08,1.08A1.08,1.08,0,0,0,21,25.25Zm0,1.45a.36.36,0,1,1,.36-.36h0A.36.36,0,0,1,21,26.69Z" transform="translate(0)"/><path id="Path_178" data-name="Path 178" d="M25.61,25.25a1.08,1.08,0,1,0,1.08,1.08,1.08,1.08,0,0,0-1.08-1.08Zm0,1.45a.36.36,0,1,1,.36-.36h0A.36.36,0,0,1,25.61,26.69Z" transform="translate(0)"/><path id="Path_179" data-name="Path 179" d="M27.76,7.79H25.81V2.24L23.57,0H15.1V7.79H10.71V7.3A2.44,2.44,0,0,0,8.28,4.87H5.36A2.44,2.44,0,0,0,2.92,7.3v.49H1.46A1.46,1.46,0,0,0,0,9.25H0V27.76a1.46,1.46,0,0,0,1.46,1.46h26.3a1.46,1.46,0,0,0,1.46-1.46h0V9.25a1.46,1.46,0,0,0-1.46-1.46ZM16.07,1h7.1l1.67,1.67v11H16.07ZM3.9,7.3A1.46,1.46,0,0,1,5.36,5.84H8.28A1.46,1.46,0,0,1,9.74,7.3V23.86a1.46,1.46,0,0,1-1.46,1.46H5.36A1.46,1.46,0,0,1,3.9,23.86ZM28.25,27.75a.49.49,0,0,1-.49.49H1.46A.49.49,0,0,1,1,27.75V9.25a.49.49,0,0,1,.49-.49H2.92v15.1A2.44,2.44,0,0,0,5.36,26.3H8.28a2.44,2.44,0,0,0,2.44-2.43V8.77H15.1v4.87H13.64v1H27.27v-1H25.81V8.77h1.95a.49.49,0,0,1,.49.49h0Z" transform="translate(0)"/></g></g></g></svg>