<svg id="Group_1466" data-name="Group 1466" xmlns="http://www.w3.org/2000/svg" viewBox="0 0 60.25 35.35"><defs><style>.cls-1{fill:#ec1b2f;}.cls-2{fill:#fff;}</style></defs><g id="lawn-mower"><g id="Group_1126" data-name="Group 1126"><path id="Path_547" data-name="Path 547" class="cls-1" d="M32,27.22a3.42,3.42,0,1,1-3.42,3.41h0A3.42,3.42,0,0,1,32,27.22Z" transform="translate(0 0)"/><path id="Path_568" data-name="Path 568" class="cls-1" d="M14.54,27.22a3.42,3.42,0,1,1-3.42,3.41h0A3.42,3.42,0,0,1,14.54,27.22Z" transform="translate(0 0)"/><circle id="Ellipse_28" data-name="Ellipse 28" class="cls-2" cx="32" cy="30.63" r="1.14"/><circle id="Ellipse_29" data-name="Ellipse 29" class="cls-2" cx="14.54" cy="30.63" r="1.14"/></g><g id="Group_1128" data-name="Group 1128"><path id="Path_541" data-name="Path 541" d="M7.44,7.32,18.26,28.09l-1,.53L6.44,7.85Z" transform="translate(0 0)"/><g id="Group_1127" data-name="Group 1127"><path id="Path_543" data-name="Path 543" d="M14.91,28.93a1.71,1.71,0,1,0,1.71,1.71,1.71,1.71,0,0,0-1.71-1.71Zm0,2.27a.57.57,0,0,1-.57-.57.57.57,0,0,1,1.14,0,.56.56,0,0,1-.57.57Z" transform="translate(0 0)"/><path id="Path_544" data-name="Path 544" d="M32,26.65a4,4,0,0,0-2.78,1.14H28V25.51a1.15,1.15,0,0,0,1.14-1.14V22.66a4,4,0,0,0-4-4H23.46V17a1.64,1.64,0,0,1,.73.34.58.58,0,0,0,.81,0,.57.57,0,0,0,0-.8l0-.05a3.4,3.4,0,0,0-4.22,0,.56.56,0,0,0,0,.8h0a.58.58,0,0,0,.8,0,1.81,1.81,0,0,1,.74-.35v1.65H19.47a1.72,1.72,0,0,0-1.71,1.71v4a1.15,1.15,0,0,0,1.14,1.14v2.27h-.79L7.18,6.81a.57.57,0,0,0-1,.48l0,0,2.52,4.84L5.13,19.3A5.71,5.71,0,0,0,7.3,26.73l3.93,2.37a4,4,0,0,0,6.47,4.38H29.22a4,4,0,0,0,5.57-5.7A4,4,0,0,0,32,26.65ZM19.47,28.93H28.4a3.92,3.92,0,0,0,0,3.41H18.51a3.92,3.92,0,0,0,0-3.41Zm-.57-8.55a.57.57,0,0,1,.57-.57h5.7A2.86,2.86,0,0,1,28,22.66v1.71H18.9ZM20,25.51h6.83v2.28H20Zm-12.16.24a4.58,4.58,0,0,1-1.73-5.94l3.19-6.38,7,13.5a4,4,0,0,0-4.55,1.19Zm4.18,4.89a2.85,2.85,0,1,1,2.85,2.84h0a2.85,2.85,0,0,1-2.85-2.84h0ZM32,33.48a2.85,2.85,0,1,1,2.85-2.84h0A2.85,2.85,0,0,1,32,33.48Z" transform="translate(0 0)"/><path id="Path_545" data-name="Path 545" d="M32,28.93a1.71,1.71,0,1,0,1.71,1.71A1.71,1.71,0,0,0,32,28.93Zm0,2.27a.57.57,0,0,1-.57-.57.57.57,0,1,1,1.14,0,.56.56,0,0,1-.57.57Z" transform="translate(0 0)"/><path id="Path_546" data-name="Path 546" d="M1.28,7.64H6.41L7.3,9.36a.57.57,0,0,0,.77.24c.28-.15.2-.58.2-.58l-1-2.21h0a.57.57,0,0,0-.5-.31H1.28a.57.57,0,0,0-.57.57.56.56,0,0,0,.56.57Z" transform="translate(0 0)"/></g></g></g><g id="Group_1129" data-name="Group 1129"><path id="Path_549" data-name="Path 549" d="M45.8,34.33V27.05l-.21,0A8,8,0,0,1,40.5,13.7l.09-.1,0-.12a6.18,6.18,0,0,1,1.14-5.69l.1-.12-.07-.13A5.28,5.28,0,0,1,46.48,0a5.16,5.16,0,0,1,2.26.51,5.27,5.27,0,0,1,2.5,7l-.06.14.1.12a6.23,6.23,0,0,1,1.14,5.68l0,.13.09.1A8,8,0,0,1,47.37,27l-.21,0v2.08l4.62-1.54a.78.78,0,0,1,.22,0,.68.68,0,0,1,.64.46.67.67,0,0,1,0,.52.7.7,0,0,1-.4.34l-5.05,1.69v3.76Zm.68-33A4,4,0,0,0,44.36,2a3.94,3.94,0,0,0-1.7,2.47,3.89,3.89,0,0,0,.54,3,.67.67,0,0,1-.09.85A4.83,4.83,0,0,0,42,13.52a.68.68,0,0,1-.16.74,6.67,6.67,0,0,0,3.69,11.39l.27,0V22.17l-2.45-1.63a.69.69,0,0,1-.19-.95.71.71,0,0,1,.57-.3.63.63,0,0,1,.37.12l1.7,1.13V15.38a.68.68,0,1,1,1.36,0V25.69l.28,0a6.67,6.67,0,0,0,3.68-11.39.68.68,0,0,1-.16-.74,4.81,4.81,0,0,0-1.1-5.27.67.67,0,0,1-.09-.85,3.93,3.93,0,0,0-3.3-6.05Z" transform="translate(0 0)"/></g><path id="Path_566" data-name="Path 566" d="M.65,35.35a.65.65,0,0,1,0-1.3H59.58a.65.65,0,0,1,.67.63h0a.65.65,0,0,1-.63.67Z" transform="translate(0 0)"/></svg>