<svg id="Group_1463" data-name="Group 1463" xmlns="http://www.w3.org/2000/svg" viewBox="0 0 57.21 35.56"><defs><style>.cls-1{fill:#ec1b2f;}</style></defs><path id="Path_567" data-name="Path 567" class="cls-1" d="M29.5,19c.54.11,9,15.1,9,15.1s4.89-4.35,4.35-4.46S29.5,19,29.5,19Z" transform="translate(0 0.01)"/><path id="Path_565" data-name="Path 565" d="M.63,35.55A.63.63,0,0,1,0,34.92H0a.64.64,0,0,1,.63-.64H.9V30.14H.63A.64.64,0,0,1,0,29.5a.63.63,0,0,1,.63-.63H.9v-3a.64.64,0,0,1,.64-.63h3.6a.64.64,0,0,1,.64.63v1.82l10-12.28L28.15.18h0A.61.61,0,0,1,29,.12l0,0c.24.27,1.67,2,8.52,10.46l13.89,17.1V25.88a.65.65,0,0,1,.64-.63h3.61a.63.63,0,0,1,.63.63v3h.26a.64.64,0,0,1,0,1.27H56.3v4.14h.27a.64.64,0,0,1,.63.64.63.63,0,0,1-.63.63ZM29.24,9h.26a.64.64,0,0,1,0,1.27h-.26v2.32h.26a.63.63,0,0,1,0,1.26h-.26v3.57L43.44,29a.64.64,0,0,1,.09.9l-3.65,4.37H47l.82-9L29.24,2.42ZM9.41,25.25l.82,9H28V13.89H27.7a.65.65,0,0,1-.66-.63v0a.63.63,0,0,1,.64-.62h.26l0-.27V10.29H27.7a.64.64,0,0,1-.63-.64h0A.63.63,0,0,1,27.7,9H28V2.42ZM5.78,29.73v4.55H9l-.69-7.62ZM2.17,34.28H4.51V30.14H2.17Zm50.53,0H55V30.14H52.7Zm-4.45,0h3.18V29.73l-2.49-3.07Zm-19,0h8.19L29.24,20.13ZM31.61,21.7l7,12.11,3.52-4.22L32,21.36ZM52.7,28.87H55V26.53H52.7Zm-50.53,0H4.51V26.53H2.17Z" transform="translate(0 0.01)"/></svg>