<svg id="Layer_1" data-name="Layer 1" xmlns="http://www.w3.org/2000/svg" viewBox="0 0 63.37 30.99"><defs><style>.cls-1{fill:#ec1b2f;}.cls-2{stroke:#000;stroke-width:0.2px;}</style></defs><g id="Group_1485" data-name="Group 1485"><g id="Group_1139" data-name="Group 1139"><rect id="Rectangle_239" data-name="Rectangle 239" class="cls-1" x="11.48" y="8.37" width="7.44" height="4.73"/><g id="hand-drill"><path id="Path_574" data-name="Path 574" class="cls-2" d="M23.49,14.84a1.19,1.19,0,0,0,1.2-1.2h0v-.07h.13a1.4,1.4,0,0,0,1.4-1.4V9.1a1.4,1.4,0,0,0-1.4-1.4h-.13V7.62a1.2,1.2,0,0,0-1.2-1.2H11.15a1.16,1.16,0,0,0-1.08.77H8.85A1.15,1.15,0,0,0,7.77,8H5L4.85,8,3.6,8.62a.9.9,0,0,0-.49.8v.84H.48a.38.38,0,0,0,0,.76H3.11v.84a.89.89,0,0,0,.49.8l1.25.62a.39.39,0,0,0,.18,0H7.77a1.13,1.13,0,0,0,1.08.76h1.22a1.14,1.14,0,0,0,1.08.77h.58v2.47a1.15,1.15,0,0,0,1.15,1.15h.39v.39a.89.89,0,0,0,.89.89h.75a1.14,1.14,0,0,1,1.1.81l1,3.26a1.15,1.15,0,0,1-.76,1.44,1.33,1.33,0,0,1-.34,0h-.76a1.4,1.4,0,0,0-1.4,1.4h0v.14H11.4a1.4,1.4,0,0,0-1.4,1.4h0v1.27a1.4,1.4,0,0,0,1.4,1.4H24.82a1.4,1.4,0,0,0,1.4-1.4h0V28.24a1.4,1.4,0,0,0-1.4-1.4h-.28V26.7a1.4,1.4,0,0,0-1.4-1.4h0a.63.63,0,0,1-.61-.45l-1.2-3.93a11.16,11.16,0,0,1-.51-3.4,2.68,2.68,0,0,1,2.67-2.67Zm1.33-6.37a.64.64,0,0,1,.64.63h0v3.06a.64.64,0,0,1-.64.64h-.13V8.47ZM3.88,11.85V9.42A.13.13,0,0,1,4,9.3L4.64,9v3.35L4,12A.11.11,0,0,1,3.88,11.85Zm4.59,1.08V10.12a.38.38,0,0,0-.36-.4.38.38,0,0,0-.41.37v2.46H5.4V8.72H8.09a.38.38,0,0,0,.38-.38A.38.38,0,0,1,8.85,8H10v5.36H8.85a.38.38,0,0,1-.38-.39Zm4.41,4.77a.38.38,0,0,1-.38-.38V14.84h.38a.4.4,0,0,1,.39.39V17.7Zm7.17-.18a12.42,12.42,0,0,0,.54,3.63l1.21,3.93a1.4,1.4,0,0,0,1.34,1,.63.63,0,0,1,.63.63v.13h-1a.39.39,0,0,0-.4.37.38.38,0,0,0,.36.4h2.13a.64.64,0,0,1,.64.64h0v1.27a.64.64,0,0,1-.64.64H11.4a.64.64,0,0,1-.64-.64V28.24a.64.64,0,0,1,.64-.64H21a.38.38,0,0,0,.36-.4.4.4,0,0,0-.36-.37H14.54V26.7a.63.63,0,0,1,.63-.63h.76a1.92,1.92,0,0,0,1.91-1.91,1.79,1.79,0,0,0-.09-.57l-1-3.27A1.91,1.91,0,0,0,14.91,19h-.75a.13.13,0,0,1-.13-.13h0V15.22a1.15,1.15,0,0,0-1.15-1.14H11.15a.39.39,0,0,1-.39-.39V7.57a.39.39,0,0,1,.39-.38H23.49a.44.44,0,0,1,.44.43h0v6a.44.44,0,0,1-.44.44h0A3.44,3.44,0,0,0,20.05,17.52Z" transform="translate(0.02 -0.03)"/><path id="Path_575" data-name="Path 575" class="cls-2" d="M18.6,8H12.17a.63.63,0,0,0-.64.63h0v4.09a.63.63,0,0,0,.64.63H18.6a.63.63,0,0,0,.63-.63h0V8.59A.63.63,0,0,0,18.6,8Zm-.13,4.59H12.29V8.72h6.18Z" transform="translate(0.02 -0.03)"/><path id="Path_576" data-name="Path 576" class="cls-2" d="M22.78,12.55H20.43a.38.38,0,1,0,0,.76h2.39a.38.38,0,0,0,.36-.4A.37.37,0,0,0,22.78,12.55Z" transform="translate(0.02 -0.03)"/><path id="Path_577" data-name="Path 577" class="cls-2" d="M22.78,11H20.43a.38.38,0,1,0,0,.76h2.39a.38.38,0,0,0,.36-.4A.37.37,0,0,0,22.78,11Z" transform="translate(0.02 -0.03)"/><path id="Path_578" data-name="Path 578" class="cls-2" d="M22.78,9.49H20.43a.38.38,0,1,0,0,.76h2.39a.38.38,0,0,0,.36-.4A.37.37,0,0,0,22.78,9.49Z" transform="translate(0.02 -0.03)"/><path id="Path_579" data-name="Path 579" class="cls-2" d="M22.78,8H20.43a.38.38,0,1,0,0,.76h2.39a.38.38,0,0,0,.36-.4A.37.37,0,0,0,22.78,8Z" transform="translate(0.02 -0.03)"/></g></g><g id="electric-generator"><g id="Group_1149" data-name="Group 1149"><path id="Path_580" data-name="Path 580" d="M39.31,10.59H39l.81-1.18a.51.51,0,0,0-.13-.71.5.5,0,0,0-.7.13l-1.2,1.74a.7.7,0,0,0-.11.72.61.61,0,0,0,.59.32h.36l-.82,1.18a.51.51,0,0,0,.84.58h0l1.2-1.74a.7.7,0,0,0,.11-.72A.62.62,0,0,0,39.31,10.59Z" transform="translate(0.02 -0.03)"/><path id="Path_581" data-name="Path 581" d="M41.87,6.42H35.66A1.58,1.58,0,0,0,34.08,8v6.2a1.58,1.58,0,0,0,1.58,1.58h6.21a1.58,1.58,0,0,0,1.58-1.58V8A1.58,1.58,0,0,0,41.87,6.42Zm.57,7.78a.58.58,0,0,1-.57.57H35.66a.56.56,0,0,1-.56-.57V8a.56.56,0,0,1,.56-.57h6.21a.58.58,0,0,1,.57.57Z" transform="translate(0.02 -0.03)"/><path id="Path_582" data-name="Path 582" d="M41.28,17h-5a.51.51,0,0,0-.51.51.5.5,0,0,0,.51.5h5a.5.5,0,0,0,.5-.5A.5.5,0,0,0,41.28,17Z" transform="translate(0.02 -0.03)"/><path id="Path_583" data-name="Path 583" d="M41.28,19.19h-5a.51.51,0,0,0-.51.51.5.5,0,0,0,.51.5h5a.5.5,0,0,0,.5-.5A.5.5,0,0,0,41.28,19.19Z" transform="translate(0.02 -0.03)"/><path id="Path_584" data-name="Path 584" d="M47.26,16.93a1.66,1.66,0,1,0,1.66,1.66h0A1.66,1.66,0,0,0,47.26,16.93Zm0,2.31a.65.65,0,1,1,.64-.65h0a.63.63,0,0,1-.64.65Z" transform="translate(0.02 -0.03)"/><path id="Path_585" data-name="Path 585" d="M52.2,16.93a1.66,1.66,0,1,0,1.66,1.66h0A1.66,1.66,0,0,0,52.2,16.93Zm0,2.31a.65.65,0,1,1,.65-.65h0A.65.65,0,0,1,52.2,19.24Z" transform="translate(0.02 -0.03)"/><path id="Path_586" data-name="Path 586" d="M49.52,14.77h-3.4V7.43h9.47v7.34H51.87a.51.51,0,0,0-.51.51.5.5,0,0,0,.51.5h3.9A.83.83,0,0,0,56.6,15V7.25a.83.83,0,0,0-.83-.83H45.93a.83.83,0,0,0-.83.83V15a.83.83,0,0,0,.83.82h3.59a.5.5,0,0,0,.51-.5.51.51,0,0,0-.51-.51Z" transform="translate(0.02 -0.03)"/><path id="Path_587" data-name="Path 587" d="M47.82,9.64a.47.47,0,0,0,.35.15.51.51,0,0,0,.51-.51.5.5,0,0,0-.5-.51.52.52,0,0,0-.52.51.55.55,0,0,0,.15.36Z" transform="translate(0.02 -0.03)"/><path id="Path_588" data-name="Path 588" d="M51.3,9.05a.51.51,0,1,0-.9.46h0a.51.51,0,0,0,.9-.46Z" transform="translate(0.02 -0.03)"/><path id="Path_589" data-name="Path 589" d="M53.17,9.64a.49.49,0,0,0,.36.15.51.51,0,1,0-.36-.15Z" transform="translate(0.02 -0.03)"/><path id="Path_590" data-name="Path 590" d="M47.81,11.46h0a.53.53,0,0,0,.36.15.51.51,0,0,0,0-1,.5.5,0,0,0-.51.5.48.48,0,0,0,.15.36Z" transform="translate(0.02 -0.03)"/><path id="Path_591" data-name="Path 591" d="M50.62,10.65a.5.5,0,0,0-.22.68h0a.49.49,0,0,0,.67.22.49.49,0,0,0,.23-.68.51.51,0,0,0-.68-.23h0Z" transform="translate(0.02 -0.03)"/><path id="Path_592" data-name="Path 592" d="M53.17,11.46h0a.51.51,0,1,0,.36-.87.5.5,0,0,0-.51.5.51.51,0,0,0,.14.36Z" transform="translate(0.02 -0.03)"/><path id="Path_593" data-name="Path 593" d="M47.89,13.34a.5.5,0,0,0,.7-.14h0a.51.51,0,0,0-.13-.71.5.5,0,0,0-.7.13v0h0A.5.5,0,0,0,47.89,13.34Z" transform="translate(0.02 -0.03)"/><path id="Path_594" data-name="Path 594" d="M50.85,13.43a.5.5,0,0,0,.48-.35h0a.5.5,0,0,0-.31-.63h0a.51.51,0,0,0-.65.32.5.5,0,0,0,.32.64.47.47,0,0,0,.17,0Z" transform="translate(0.02 -0.03)"/><path id="Path_595" data-name="Path 595" d="M53.25,13.34a.5.5,0,0,0,.7-.14h0a.51.51,0,0,0-.84-.58v0h0A.5.5,0,0,0,53.25,13.34Z" transform="translate(0.02 -0.03)"/><path id="Path_596" data-name="Path 596" d="M62,21.65V2a1.9,1.9,0,1,0-3.8-.07v2H56.6V3a1.9,1.9,0,0,0-1.9-1.9H51.92A1.9,1.9,0,0,0,50,3v.89H45.6V3a1.9,1.9,0,0,0-1.9-1.9H36A1.9,1.9,0,0,0,34.09,3v.89H32.53V2a1.9,1.9,0,0,0-3.8.07v9.85a.51.51,0,0,0,1,0V2a.87.87,0,0,1,.89-.87.89.89,0,0,1,.88.8V21.32A1.46,1.46,0,0,0,33,22.77H53.08a5.3,5.3,0,0,0-.56,1.77H33a3.22,3.22,0,0,1-3.22-3.22V14.24a.51.51,0,0,0-1,0v7.08A4.26,4.26,0,0,0,33,25.56h1v1.86h-.88a1.65,1.65,0,1,0,0,3.3h5.55a1.65,1.65,0,1,0,0-3.3h-.88V25.56h14.7A5.44,5.44,0,1,0,62,21.65ZM59.17,1.9A.88.88,0,0,1,60.05,1a.91.91,0,0,1,.89.92V20.77A5.48,5.48,0,0,0,59.17,20ZM51,3a.88.88,0,0,1,.88-.89H54.7a.89.89,0,0,1,.88.89v.89H51ZM35.1,3A.89.89,0,0,1,36,2.07H43.7a.89.89,0,0,1,.89.89v.89H35.1ZM33,21.76a.44.44,0,0,1-.44-.44V4.86H58.15v15h-.24a5.4,5.4,0,0,0-4.14,1.91Zm5.67,6.68a.62.62,0,0,1,.64.63.65.65,0,0,1-.64.65H33.09a.64.64,0,0,1-.64-.64.63.63,0,0,1,.64-.64h1.38a.51.51,0,0,0,.51-.51V25.56h1.77v2.36a.51.51,0,0,0,.51.51Zm19.27,1.28a4.43,4.43,0,1,1,4.42-4.44,4.43,4.43,0,0,1-4.42,4.44Z" transform="translate(0.02 -0.03)"/><path id="Path_597" data-name="Path 597" d="M57.91,22.24a3,3,0,1,0,3,3.05h0A3,3,0,0,0,57.91,22.24Zm0,5.08a2,2,0,1,1,2-2A2,2,0,0,1,57.91,27.32Z" transform="translate(0.02 -0.03)"/></g></g></g></svg>