<svg id="Layer_1" data-name="Layer 1" xmlns="http://www.w3.org/2000/svg" viewBox="0 0 46.45 35.35"><defs><style>.cls-1{fill:#ec1b2f;}</style></defs><g id="Group_1467" data-name="Group 1467"><g id="Group_1134" data-name="Group 1134"><path id="Path_566" data-name="Path 566" d="M.5,35.33A.58.58,0,0,1,0,34.7.61.61,0,0,1,.49,34H45.92a.58.58,0,0,1,.52.63.59.59,0,0,1-.49.67H.5Z" transform="translate(0)"/></g><path id="Path_572" data-name="Path 572" class="cls-1" d="M7.87,11.46,9.72.59h7.61l1.52,10.87Z" transform="translate(0)"/><path id="Path_573" data-name="Path 573" class="cls-1" d="M33.28,17.21l3.22,3.57s.5-1.58.5-1.73a5.29,5.29,0,0,0-.29-1.31c-.09-.06-.85-.53-1.09-.65a3.77,3.77,0,0,0-1-.32h-1Z" transform="translate(0)"/><g id="Group_1136" data-name="Group 1136"><g id="lamp"><g id="Group_1135" data-name="Group 1135"><path id="Path_571" data-name="Path 571" d="M19.32,11.32,17.69.46A.55.55,0,0,0,17.16,0H9.56A.55.55,0,0,0,9,.46L7.39,11.32a.55.55,0,0,0,.46.62h5V31.49H8.47a.54.54,0,0,0-.54.54V34.2a.54.54,0,0,0,.54.54h9.77a.54.54,0,0,0,.54-.54V32a.54.54,0,0,0-.54-.54H13.9V11.94h1.63v2.32a1.09,1.09,0,0,0-.4,1.49,1.08,1.08,0,0,0,1.48.4,1.09,1.09,0,0,0,0-1.89V11.94h2.17a.55.55,0,0,0,.55-.54A.22.22,0,0,0,19.32,11.32ZM17.7,32.57v1.09H9V32.57ZM8.56,10.86,10,1.09h6.67l1.46,9.77Z" transform="translate(0)"/></g></g><path id="Path_570" data-name="Path 570" d="M38.78,22.86l-2-2.14a2.79,2.79,0,0,0-2.11-4.46,2.65,2.65,0,0,0-1.6.43l-2.2-2.4-.67-.67-.56.43h0a.76.76,0,0,0-.27.43l-1.29,5.41-3.61,3.32a1,1,0,0,0-.33.72,1.05,1.05,0,0,0,.27.75L27,27.48v4.81H22.88a.51.51,0,0,0-.51.51v2a.51.51,0,0,0,.51.51H34.35a.51.51,0,0,0,.51-.51v-2a.51.51,0,0,0-.51-.51h-4.2V28.23l3.05-2.8,5.51-.82.2-.07h0a.83.83,0,0,0,.21-.16l.6-.46Zm-4.12-5.58A1.78,1.78,0,0,1,36.11,20l-2.29-2.5a1.74,1.74,0,0,1,.84-.18Zm-.82,16v1H23.39v-1h4.14a.52.52,0,0,0,.52-.52V23.66h1.07V32.8a.52.52,0,0,0,.52.52Zm-3.69-6.48v-3.7a.51.51,0,0,0-.51-.51h-2.1a.51.51,0,0,0-.52.51V26l-1.81-2,3.35-3.07,1.84,2,1.85,2Zm3-2.45-4-4.37,1.16-4.88,7.82,8.51Z" transform="translate(0)"/></g></g></svg>