<svg id="Layer_1" data-name="Layer 1" xmlns="http://www.w3.org/2000/svg" viewBox="0 0 60.25 35.35"><defs><style>.cls-1{fill:#ec1b2f;}</style></defs><g id="Group_1464" data-name="Group 1464"><path id="Path_569" data-name="Path 569" class="cls-1" d="M50.64,11.07s.23-2,0-2.19a52.88,52.88,0,0,1,.8-8.43c.19.13,5.47,0,5.47,0l1,10.62-.45.7H50.64Z" transform="translate(0 0)"/><g id="Group_1131" data-name="Group 1131"><path id="Path_550" data-name="Path 550" d="M.65,35.35a.65.65,0,0,1,0-1.3H59.58a.65.65,0,0,1,.67.63h0a.65.65,0,0,1-.63.67Z" transform="translate(0 0)"/><path id="Path_551" data-name="Path 551" d="M9,28a.65.65,0,0,1-.65-.65V23.66a2.49,2.49,0,0,1,2.49-2.49H38.41a2.5,2.5,0,0,1,2.49,2.49v3.68a.65.65,0,0,1-.65.65Zm1.84-5.52a1.19,1.19,0,0,0-1.19,1.19v3h30v-3a1.2,1.2,0,0,0-1.19-1.19Z" transform="translate(0 0)"/><path id="Path_552" data-name="Path 552" d="M3.44,28a.66.66,0,0,1-.66-.65v-11a2.51,2.51,0,0,1,2.5-2.5H7.12a2.51,2.51,0,0,1,2.49,2.5v11A.65.65,0,0,1,9,28ZM5.28,15.11A1.19,1.19,0,0,0,4.09,16.3V26.69H8.31V16.3a1.2,1.2,0,0,0-1.19-1.19Z" transform="translate(0 0)"/><path id="Path_553" data-name="Path 553" d="M40.25,28a.65.65,0,0,1-.65-.65v-11a2.5,2.5,0,0,1,2.49-2.5h1.84a2.51,2.51,0,0,1,2.49,2.5v11a.65.65,0,0,1-.65.65Zm1.84-12.88A1.19,1.19,0,0,0,40.9,16.3V26.69h4.22V16.3a1.2,1.2,0,0,0-1.19-1.19Z" transform="translate(0 0)"/><path id="Path_554" data-name="Path 554" d="M43.93,15.11a.65.65,0,0,1-.65-.65V7.1a1.2,1.2,0,0,0-1.19-1.19h-35A1.19,1.19,0,0,0,5.93,7.1v7.36a.64.64,0,0,1-.65.62.65.65,0,0,1-.65-.63V7.1A2.5,2.5,0,0,1,7.12,4.6h35a2.5,2.5,0,0,1,2.49,2.5v7.36a.65.65,0,0,1-.65.65Z" transform="translate(0 0)"/><path id="Path_555" data-name="Path 555" d="M32.88,14.19a.66.66,0,0,1,0-1.31h1.84a.66.66,0,0,1,.62.67.65.65,0,0,1-.63.64Z" transform="translate(0 0)"/><path id="Path_556" data-name="Path 556" d="M43.93,35.35a.66.66,0,0,1-.59-.36l-1.66-3.32H7.52L5.86,35a.64.64,0,0,1-.58.36H3.44a.65.65,0,0,1-.65-.65V27.34a.65.65,0,0,1,.65-.65H45.77a.65.65,0,0,1,.65.65V34.7a.65.65,0,0,1-.65.65Zm-1.84-5a.64.64,0,0,1,.58.36l1.66,3.32h.78V28h-41v6.06h.79l1.66-3.32a.64.64,0,0,1,.58-.36Z" transform="translate(0 0)"/><path id="Path_557" data-name="Path 557" d="M48.53,20.63A.66.66,0,0,1,47.9,20a.64.64,0,0,1,.64-.63h11a.65.65,0,0,1,.63.66.66.66,0,0,1-.63.64Z" transform="translate(0 0)"/><path id="Path_558" data-name="Path 558" d="M50.37,34.43a.65.65,0,0,1-.65-.65V30.1a2.5,2.5,0,0,1,2.49-2.49,1.19,1.19,0,0,0,1.19-1.19V22.74a.66.66,0,0,1,.63-.68h0a.66.66,0,0,1,.67.64v3.72a2.5,2.5,0,0,1-2.49,2.49A1.19,1.19,0,0,0,51,30.1v3.68a.65.65,0,0,1-.65.65Z" transform="translate(0 0)"/><path id="Path_559" data-name="Path 559" d="M57.73,34.43a.65.65,0,0,1-.65-.65V30.1a1.19,1.19,0,0,0-1.19-1.19,2.5,2.5,0,0,1-2.49-2.49V20.9a.66.66,0,0,1,.18-.48.67.67,0,0,1,.45-.2h0a.66.66,0,0,1,.67.64v5.56a1.19,1.19,0,0,0,1.19,1.19,2.5,2.5,0,0,1,2.49,2.49v3.68a.65.65,0,0,1-.65.65Z" transform="translate(0 0)"/><path id="Path_560" data-name="Path 560" d="M54.05,34.43a.65.65,0,0,1-.65-.65V26.42a.62.62,0,0,1,.18-.47.61.61,0,0,1,.45-.2h0a.65.65,0,0,1,.67.63v7.4a.65.65,0,0,1-.65.65Z" transform="translate(0 0)"/><path id="Path_561" data-name="Path 561" d="M50.37,12.35a.65.65,0,0,1-.65-.65V9.85L50.64.59A.65.65,0,0,1,51.29,0h5.52a.64.64,0,0,1,.65.59l.92,9.2v1.9a.64.64,0,0,1-.19.46.58.58,0,0,1-.46.19ZM51,9.92V11h6.06V9.85L56.22,1.3H51.88Z" transform="translate(0 0)"/><path id="Path_562" data-name="Path 562" d="M52,20.63a.66.66,0,0,1-.49-.22,3.41,3.41,0,1,1,5.06,0,.64.64,0,0,1-.49.22Zm2-4.6A2.1,2.1,0,0,0,52,18.14a1.91,1.91,0,0,0,.29,1.06l.07.13h3.48l.08-.13a2.09,2.09,0,0,0,.29-1.06A2.1,2.1,0,0,0,54.06,16Z" transform="translate(0 0)"/><path id="Path_563" data-name="Path 563" d="M54.05,16a.65.65,0,0,1-.65-.65V11.69a.64.64,0,0,1,.65-.62.65.65,0,0,1,.65.63v3.68a.66.66,0,0,1-.65.65Z" transform="translate(0 0)"/><path id="Path_564" data-name="Path 564" d="M14.46,14.19a.65.65,0,0,1-.48-1.1.63.63,0,0,1,.46-.2h1.88a.61.61,0,0,1,.45.2.65.65,0,0,1,.18.46.66.66,0,0,1-.64.64Z" transform="translate(0 0)"/></g></g></svg>